<svg width="30" height="36" viewBox="-3 -3 36 42" xmlns="http://www.w3.org/2000/svg"><path fill-rule="evenodd" clip-rule="evenodd" d="M26.667 9h-3.334C23.333 4.4 19.6.667 15 .667A8.336 8.336 0 006.667 9H3.333A3.343 3.343 0 000 12.333v20c0 1.834 1.5 3.334 3.333 3.334h23.334c1.833 0 3.333-1.5 3.333-3.334v-20C30 10.5 28.5 9 26.667 9zM15 4c2.767 0 5 2.233 5 5H10c0-2.767 2.233-5 5-5zm-8.333 8.333c0 4.6 3.733 8.334 8.333 8.334s8.333-3.734 8.333-8.334H20c0 2.767-2.233 5-5 5s-5-2.233-5-5H6.667z" fill="#333"/></svg>