<svg xmlns="http://www.w3.org/2000/svg" viewBox="0 0 390 390"><path d="M362 63c.2-.3 0-.6 0-.9V10c.2-5.3-4-9.8-9.4-10h-315A9.6 9.6 0 0028 9.7v52.4c0 .3-.2.6-.1.9 0 .1-.1.3 0 .4v1l.2.4v.5l.2.4c0 .2 0 .3.2.5 0 .1 0 .3.2.4 0 .1 0 .3.2.4l.2.4.2.4.3.4.2.3.3.1 119.9 141V380c-.1 3.8 2 7.3 5.5 9a9.8 9.8 0 0010.4-1.2l70.6-57.3a9.7 9.7 0 003.5-7.8V209.6l119.8-141 .2-.1.3-.3.3-.4.3-.4.2-.4.2-.4c0-.1 0-.3.2-.4 0-.2 0-.3.2-.5v-.4c.2-.2.2-.3.2-.5v-.4l.2-.5v-.5c0-.1-.1-.3 0-.4zM222.7 199.4a10.4 10.4 0 00-2.6 6.5v112L170 359V205.9c-.1-2.4-1-4.7-2.6-6.5L59.2 72h271.6L222.6 199.4zM342 52H48V20h294v32z"/></svg>