<svg xmlns="http://www.w3.org/2000/svg" width="18" height="20" fill="none"><path fill="#333" fill-rule="evenodd" d="M6.5.8h5c1 0 1.7.8 1.7 1.7v.8h2.5c.9 0 1.6.8 1.6 1.7v1.7c0 .9-.7 1.6-1.6 1.6h-.1l-.8 9.2c0 1-.7 1.7-1.6 1.7H4.8c-.9 0-1.6-.8-1.6-1.6l-.8-9.3c-1 0-1.7-.7-1.7-1.6V5c0-1 .7-1.7 1.6-1.7h2.5v-.8c0-1 .8-1.7 1.7-1.7zM2.3 5h13.4v1.7H2.3V5zm1.8 3.3h9.8l-.7 9.1v.1H4.8l-.7-9.2zm7.4-5.8v.8h-5v-.8h5z" clip-rule="evenodd"/><path fill="#fff" d="M13.2 3.3h-.3v.3h.3v-.3zm2.4 5v-.2h-.2v.2h.2zm-.8 9.2h-.2.2zm-11.6 0h.2-.2zm-.8-9.2h.3v-.2h-.3v.2zm2.4-5v.3h.3v-.3h-.3zM2.3 5v-.3h-.2V5h.2zm13.4 0h.2v-.3h-.2V5zm0 1.7v.2h.2v-.2h-.2zm-13.4 0h-.2v.2h.2v-.2zM14 8.3h.3v-.2H14v.2zm-9.8 0v-.2h-.3v.3h.3zm9 9.1H13h.3zm0 .1v.3h.3v-.3h-.2zm-8.3 0h-.2v.2h.2v-.2zm6.7-14.2v.3h.3v-.3h-.3zm0-.8h.3v-.3h-.3v.3zm-5 .8h-.3v.3h.3v-.3zm0-.8v-.3h-.3v.3h.3zm5-2h-5v.6h5V.6zm2 2a2 2 0 00-2-2v.6c.8 0 1.4.6 1.4 1.4h.5zm0 .8v-.8H13v.8h.5zm2.2-.2h-2.5v.5h2.5V3zM17.6 5a2 2 0 00-2-2v.6c.8 0 1.5.6 1.5 1.4h.5zm0 1.7V5H17v1.7h.5zm-2 1.9a2 2 0 002-2H17c0 .8-.7 1.5-1.4 1.5v.5zm0 0V8v.5zm-.5 9l.7-9.2h-.4l-.8 9 .5.1zm-2 1.8a2 2 0 002-1.9h-.5c0 .8-.7 1.4-1.4 1.4v.5zm-8.3 0h8.4V19H4.8v.5zM3 17.6c0 1 .9 1.8 2 1.8V19c-.9 0-1.5-.6-1.5-1.3H3zm-.8-9.2l.8 9.2h.5l-.8-9.3h-.4zm.2.2h.1V8v.5zm-1.9-2c0 1.1.9 2 2 2V8A1.4 1.4 0 01.8 6.7H.4zM.4 5v1.7H1V5H.4zm2-2a2 2 0 00-2 2H1c0-.8.7-1.4 1.4-1.4V3zm2.4 0H2.3v.6h2.5V3zm-.2-.5v.8H5v-.8h-.5zm1.9-2a2 2 0 00-2 2h.6c0-.8.6-1.4 1.4-1.4V.6zM4.8 4.9H2.3v.5h2.5v-.5zm8.4 0H4.8v.5h8.4v-.5zm2.5 0h-2.5v.5h2.5v-.5zm.2 1.9V5h-.5v1.7h.5zM2.3 7h13.4v-.5H2.3V7zm-.2-2v1.7h.5V5H2zm11.8 3H4.1v.6h9.8V8zm-.5 9.5l.8-9.1h-.5l-.8 9h.5zm0 0H13h.5zm-8.6.2h8.4v-.4H4.8v.4zm-1-9.3l.8 9.1H5l-.8-9.2h-.5zm8-5v-.9h-.6v.8h.5zm-5.3.2h5V3h-5v.5zm-.3-1.1v.8h.5v-.8h-.5zm5.3-.3h-5v.5h5v-.5z"/></svg>