<svg width="18" height="20" fill="none" xmlns="http://www.w3.org/2000/svg"><path fill-rule="evenodd" clip-rule="evenodd" d="M6.5.833h5c.92 0 1.667.747 1.667 1.667v.833h2.5c.92 0 1.667.747 1.667 1.667v1.667c0 .92-.747 1.666-1.667 1.666H15.6l-.766 9.167c0 .92-.746 1.667-1.667 1.667H4.834c-.92 0-1.667-.747-1.664-1.598L2.4 8.333h-.066c-.92 0-1.667-.746-1.667-1.666V5c0-.92.746-1.667 1.667-1.667h2.5V2.5c0-.92.746-1.667 1.666-1.667zM2.334 5h13.333v1.667H2.334V5zm1.738 3.333h9.856l-.758 9.098-.003.069H4.834l-.762-9.167zM11.5 2.5v.833h-5V2.5h5z" fill="#333"/><path d="M13.167 3.333h-.25v.25h.25v-.25zm2.433 5v-.25h-.23l-.019.23.25.02zm-.766 9.167l-.25-.02v.02h.25zm-11.664.07h.25v-.01l-.001-.012-.25.021zM2.4 8.332l.25-.02-.02-.23H2.4v.25zm2.434-5v.25h.25v-.25h-.25zM2.334 5v-.25h-.25V5h.25zm13.333 0h.25v-.25h-.25V5zm0 1.667v.25h.25v-.25h-.25zm-13.333 0h-.25v.25h.25v-.25zm11.594 1.666l.25.021.022-.27h-.272v.25zm-9.856 0v-.25h-.271l.022.271.25-.02zm9.098 9.098l-.25-.021v.01l.25.01zm-.003.069v.25h.24l.01-.24-.25-.01zm-8.333 0l-.25.02.02.23h.23v-.25zM11.5 3.333v.25h.25v-.25h-.25zm0-.833h.25v-.25h-.25v.25zm-5 .833h-.25v.25h.25v-.25zm0-.833v-.25h-.25v.25h.25zm5-1.917h-5v.5h5v-.5zM13.417 2.5A1.917 1.917 0 0011.5.583v.5c.783 0 1.417.635 1.417 1.417h.5zm0 .833V2.5h-.5v.833h.5zm2.25-.25h-2.5v.5h2.5v-.5zM17.584 5a1.917 1.917 0 00-1.917-1.917v.5c.782 0 1.417.635 1.417 1.417h.5zm0 1.667V5h-.5v1.667h.5zm-1.917 1.916a1.917 1.917 0 001.917-1.916h-.5c0 .782-.635 1.416-1.417 1.416v.5zm-.067 0h.067v-.5H15.6v.5zm-.517 8.938l.766-9.167-.498-.042-.767 9.167.499.042zm-1.916 1.896a1.917 1.917 0 001.917-1.917h-.5c0 .782-.635 1.417-1.417 1.417v.5zm-8.333 0h8.333v-.5H4.834v.5zM2.92 17.568c-.003.997.862 1.849 1.914 1.849v-.5c-.79 0-1.416-.641-1.414-1.347l-.5-.002zM2.15 8.354l.77 9.236.498-.042-.77-9.235-.498.041zm.183.23H2.4v-.5h-.066v.5zM.417 6.666c0 1.058.858 1.916 1.917 1.916v-.5A1.417 1.417 0 01.917 6.667h-.5zM.417 5v1.667h.5V5h-.5zm1.917-1.917A1.917 1.917 0 00.417 5h.5c0-.782.634-1.417 1.417-1.417v-.5zm2.5 0h-2.5v.5h2.5v-.5zm-.25-.583v.833h.5V2.5h-.5zM6.5.583A1.917 1.917 0 004.584 2.5h.5c0-.782.634-1.417 1.416-1.417v-.5zM4.834 4.75h-2.5v.5h2.5v-.5zm8.333 0H4.834v.5h8.333v-.5zm2.5 0h-2.5v.5h2.5v-.5zm.25 1.917V5h-.5v1.667h.5zm-13.583.25h13.333v-.5H2.334v.5zM2.084 5v1.667h.5V5h-.5zm11.844 3.083H4.072v.5h9.856v-.5zm-.509 9.368l.758-9.097-.498-.041-.758 9.097.498.041zm-.002.06l.003-.07-.5-.02-.003.069.5.02zm-8.583.239h8.333v-.5H4.834v.5zm-1.01-9.396l.76 9.167.499-.042-.761-9.166-.499.041zm7.926-5.02V2.5h-.5v.833h.5zm-5.25.25h5v-.5h-5v.5zM6.25 2.5v.833h.5V2.5h-.5zm5.25-.25h-5v.5h5v-.5z" fill="#fff"/></svg>