<svg width="50" height="21" fill="none" xmlns="http://www.w3.org/2000/svg"><path d="M23.647 10.344v5.78H21.8V1.85h4.897a4.455 4.455 0 013.171 1.236 3.972 3.972 0 011.325 3.012 3.932 3.932 0 01-1.325 3.03c-.856.81-1.913 1.216-3.17 1.215h-3.051zm0-6.736V8.59h3.096a2.455 2.455 0 001.827-.738 2.431 2.431 0 00.742-1.744 2.417 2.417 0 00-.742-1.744 2.408 2.408 0 00-1.827-.758h-3.096v.002zM35.447 6.04c1.365 0 2.442.361 3.232 1.086.79.724 1.184 1.717 1.183 2.979v6.019h-1.766v-1.355h-.08c-.764 1.116-1.781 1.674-3.05 1.674-1.084 0-1.99-.32-2.72-.957a3.058 3.058 0 01-1.094-2.392c0-1.01.385-1.814 1.154-2.41.77-.597 1.796-.896 3.08-.898 1.097 0 2 .2 2.71.598v-.419a2.075 2.075 0 00-.763-1.623 2.625 2.625 0 00-1.783-.668c-1.03 0-1.847.432-2.448 1.296l-1.626-1.017c.894-1.276 2.218-1.914 3.971-1.914zm-2.389 7.094a1.454 1.454 0 00.613 1.196c.408.32.915.488 1.434.479a2.954 2.954 0 002.077-.857c.612-.572.918-1.242.918-2.012-.576-.456-1.379-.684-2.409-.684-.75 0-1.375.18-1.876.54-.505.364-.756.807-.756 1.338zM50 6.358l-6.165 14.07h-1.906l2.288-4.923-4.054-9.147h2.007l2.93 7.015h.04l2.85-7.015H50z" fill="#E4E5E7"/><path d="M16.186 9.098c0-.559-.047-1.116-.143-1.667H8.257v3.158h4.46a3.809 3.809 0 01-1.65 2.492v2.05h2.662c1.559-1.427 2.457-3.538 2.457-6.033z" fill="#4285F4"/><path d="M8.257 17.111c2.228 0 4.104-.726 5.472-1.98l-2.662-2.05c-.74.5-1.695.784-2.81.784-2.154 0-3.982-1.441-4.636-3.384H.88v2.112a8.221 8.221 0 003.044 3.298 8.3 8.3 0 004.334 1.22z" fill="#34A853"/><path d="M3.621 10.48a4.88 4.88 0 010-3.138V5.23H.88a8.154 8.154 0 000 7.364l2.742-2.112z" fill="#FBBC04"/><path d="M8.257 3.957a4.5 4.5 0 013.167 1.23l2.357-2.34A7.964 7.964 0 008.257.71a8.3 8.3 0 00-4.334 1.22A8.221 8.221 0 00.879 5.23l2.742 2.113c.654-1.943 2.482-3.385 4.636-3.385z" fill="#EA4335"/></svg>