<svg width="220" height="100" fill="none" xmlns="http://www.w3.org/2000/svg"><path d="M15.297 11.801h-.008c-.946 0-1.836.369-2.508 1.039a3.563 3.563 0 00-1.053 2.54v53.658c0 1.968 1.607 3.572 3.583 3.577 8.33.02 22.284 1.756 31.911 11.83V28.292a3.43 3.43 0 00-.492-1.813c-7.9-12.724-23.085-14.657-31.433-14.677z" fill="#111"/><path d="M88.272 69.038V15.379c0-.96-.374-1.862-1.053-2.54a3.528 3.528 0 00-2.507-1.038h-.009c-8.347.02-23.531 1.953-31.433 14.678a3.429 3.429 0 00-.492 1.812v56.154c9.627-10.074 23.582-11.81 31.911-11.83 1.976-.005 3.583-1.61 3.583-3.577z" fill="#3844A9"/><path d="M96.422 24.175h-2.594v44.863c0 5.024-4.094 9.12-9.125 9.133-7.065.017-18.715 1.398-26.965 9.207 14.269-3.494 29.31-1.223 37.883.73a3.571 3.571 0 003.034-.69A3.558 3.558 0 00100 84.621V27.753a3.582 3.582 0 00-3.578-3.578zM6.172 69.038V24.176H3.578A3.582 3.582 0 000 27.752v56.868c0 1.095.49 2.113 1.345 2.795a3.568 3.568 0 003.034.692c8.572-1.954 23.614-4.225 37.882-.731-8.25-7.808-19.899-9.19-26.964-9.206-5.031-.013-9.125-4.11-9.125-9.133zM133.392 43.032c.128.128.304.256.528.384.16.112.272.2.336.264.08.08.12.192.12.336l-.48.888a1.809 1.809 0 01-.504.096 2.769 2.769 0 01-.24.024l-2.76-.024-1.152.024c-.192-.192-.288-.336-.288-.432 0-.08.064-.184.192-.312.128-.112.224-.2.288-.264 0-.112.04-.208.12-.288.08-.064.2-.136.36-.216.16-.08.28-.152.36-.216a.32.32 0 00.12-.264c.144-1.104.216-2.032.216-2.784a20.752 20.752 0 00-.072-1.512c-.096-.96-.144-2-.144-3.12 0-.208.016-.432.048-.672.048-.24.08-.392.096-.456-.32.416-.792.744-1.416.984a5.71 5.71 0 01-1.944.336 4.35 4.35 0 01-.768-.048l-.408-.072c-.512-.096-.944-.256-1.296-.48-1.072-.608-1.8-1.664-2.184-3.168-.272-.384-.48-1.032-.624-1.944a13.835 13.835 0 01-.144-2.496l.072-1.44.024-1.272c0-.96-.112-1.688-.336-2.184-.032 0-.096-.008-.192-.024a3.209 3.209 0 01-.336-.168c-.144-.08-.288-.2-.432-.36a1.694 1.694 0 01-.12-.168.688.688 0 01-.072-.312c0-.176.08-.344.24-.504l1.968.096c.144.016.32.016.528 0 .224-.032.392-.048.504-.048.416-.032.744-.048.984-.048.608 0 1.064.096 1.368.288.256.016.48.136.672.36.192.208.28.432.264.672-.016.224-.168.36-.456.408-.288.032-.632.04-1.032.024-.176.16-.288.328-.336.504a5.006 5.006 0 00-.048.816 5.355 5.355 0 00-.024.6c-.016.4-.08.976-.192 1.728-.096.736-.2 1.272-.312 1.608-.016.576.008 1.08.072 1.512.064.432.16.912.288 1.44.096.352.16.616.192.792.112.56.328 1.072.648 1.536.336.448.696.632 1.08.552.352.08.672.12.96.12.928 0 1.816-.32 2.664-.96l-.072-.768v-4.032c0-1.392-.032-2.544-.096-3.456-.048-.928-.16-1.568-.336-1.92-.064-.096-.2-.176-.408-.24a4.407 4.407 0 00-.552-.024c-.24 0-.432-.008-.576-.024a.773.773 0 01-.384-.216v-.984c.672-.336 1.424-.504 2.256-.504.288 0 .504.008.648.024.768.032 1.208.048 1.32.048.304 0 .544-.008.72-.024.176-.016.336-.024.48-.024.24.112.424.28.552.504.128.208.192.424.192.648a.893.893 0 01-.192.576c-.128.16-.312.24-.552.24-.224.432-.368.952-.432 1.56a30.86 30.86 0 00-.072 2.376 7.119 7.119 0 00-.072 1.008c0 .576.056 1.256.168 2.04.096.896.144 1.576.144 2.04a30.397 30.397 0 00-.24 3.912c0 .944.088 2.136.264 3.576.16 1.536.24 2.712.24 3.528zm15.794 0c.128.128.304.256.528.384.16.112.272.2.336.264.08.08.12.192.12.336v.72c-.016.016-.064.032-.144.048-.08.032-.192.072-.336.12-.192.064-.36.096-.504.096a2.769 2.769 0 01-.24.024h-.576c-.272-.016-.968-.024-2.088-.024l-1.152.024c-.192-.192-.288-.336-.288-.432 0-.08.064-.184.192-.312.128-.112.224-.2.288-.264 0-.112.04-.208.12-.288.08-.064.2-.136.36-.216.16-.08.28-.152.36-.216a.32.32 0 00.12-.264c.144-1.104.216-2.448.216-4.032 0-1.232-.04-2.624-.12-4.176-.064-1.824-.096-3.16-.096-4.008v-2.448c0-1.376-.032-2.448-.096-3.216l-1.8 4.776a2.9 2.9 0 00-.096.264c-.048.128-.12.296-.216.504a59.65 59.65 0 00-.48 1.08c-.288.64-.504 1.232-.648 1.776a24.53 24.53 0 01-.72 2.232c-.24.656-.552 1.44-.936 2.352a53.762 53.762 0 00-1.248 3.24c-.032.032-.168.376-.408 1.032-.416 1.056-.64 1.592-.672 1.608-.336.752-.712 1.128-1.128 1.128-.288 0-.536-.2-.744-.6-.208-.384-.312-.888-.312-1.512v-1.944c0-1.12.064-2.464.192-4.032.112-1.184.168-2.176.168-2.976 0-.72-.048-1.496-.144-2.328V26.424a4.146 4.146 0 01-.216-.816 12.252 12.252 0 01-.024-.912c0-.4-.016-.728-.048-.984a1.997 1.997 0 00-.216-.72c-.032 0-.096-.008-.192-.024-.08-.016-.2-.064-.36-.144a1.98 1.98 0 01-.432-.336.549.549 0 01-.144-.168.847.847 0 01-.072-.336c0-.176.072-.336.216-.48h1.968c.24 0 .616-.04 1.128-.12.352-.064.592-.096.72-.096.288 0 .576.072.864.216.256 0 .48.104.672.312.208.208.312.432.312.672 0 .224-.144.368-.432.432a6.378 6.378 0 01-1.032.072c-.16.16-.24.712-.24 1.656 0 .48.04 1.44.12 2.88.048.544.072.968.072 1.272 0 .864-.024 1.976-.072 3.336-.032 1.344-.056 2.016-.072 2.016v-.384l-.072 4.656a14.37 14.37 0 00.576-1.68c.08-.288.16-.528.24-.72.064-.144.144-.312.24-.504.096-.208.16-.384.192-.528.048-.144.072-.296.072-.456.096-.24.24-.568.432-.984.4-.88.712-1.672.936-2.376.448-1.104 1.6-4.064 3.456-8.88.016-.352.128-.656.336-.912.208-.256.488-.376.84-.36l1.248.048c.288 0 .52-.008.696-.024.176-.016.336-.024.48-.024.24.112.424.28.552.504.128.208.192.424.192.648a.893.893 0 01-.192.576c-.128.16-.312.24-.552.24-.224.432-.368.952-.432 1.56a30.86 30.86 0 00-.072 2.376V35.208c0 .976.088 2.288.264 3.936.16 1.792.24 3.088.24 3.888zm14.117-17.496c-.08-.08-.152-.232-.216-.456a5.355 5.355 0 01-.024-.6c0-.304-.016-.568-.048-.792a2.193 2.193 0 00-.216-.672c-.144-.144-.4-.216-.768-.216-.32 0-.696.04-1.128.12-.512.064-.872.096-1.08.096-.144.288-.216.672-.216 1.152 0 .384.04.816.12 1.296.064.512.096.872.096 1.08V41.04c0 .352-.024.68-.072.984a9.582 9.582 0 00-.048.792c0 .304.04.544.12.72.032.08.096.136.192.168s.176.056.24.072c.08.016.136.024.168.024.272.032.488.088.648.168.16.096.24.28.24.552a3.407 3.407 0 01-.192.168c-.096.08-.224.152-.384.216a.883.883 0 01-.432.12h-4.512c-.224 0-.368-.088-.432-.264-.048-.16-.072-.408-.072-.744.176 0 .424-.08.744-.24.32-.16.568-.24.744-.24l.024-4.2c0-.864-.008-1.472-.024-1.824a63.13 63.13 0 01-.024-2.016l.024-3.96v-3.504c0-1.248-.032-2.224-.096-2.928a8.615 8.615 0 00-.408-2.088 4.44 4.44 0 00-1.248-.168h-.12c-.784 0-1.432.176-1.944.528-.496.336-.744.856-.744 1.56 0 .176.024.376.072.6-.016.032-.08.08-.192.144a.665.665 0 01-.792-.144c0-.192-.032-.544-.096-1.056-.08-.72-.12-1.16-.12-1.32 0-.48.072-.864.216-1.152a8.671 8.671 0 011.608-.648c.512-.144 1.112-.216 1.8-.216.496 0 1.32-.016 2.472-.048a50.274 50.274 0 012.64-.072c1.184 0 2.168.056 2.952.168.8.112 1.304.384 1.512.816.208.592.312 1.168.312 1.728 0 .528-.104.96-.312 1.296-.208.336-.536.504-.984.504zm9.332 17.496c0-2.128-.032-3.904-.096-5.328-.048-1.424-.192-2.696-.432-3.816-.32 0-.84-.072-1.56-.216-1.024-.192-1.832-.288-2.424-.288-.24.224-.392.536-.456.936-.048.4-.072.952-.072 1.656-.24.896-.392 1.872-.456 2.928-.064 1.056-.096 2.44-.096 4.152.144.112.28.184.408.216.096.016.232.024.408.024.16 0 .296.008.408.024a.722.722 0 01.312.192c0 .256-.008.472-.024.648a2.114 2.114 0 01-.048.36c-.416.288-.84.44-1.272.456-.08.016-.208.024-.384.024-.304 0-.6-.024-.888-.072a11.393 11.393 0 00-.864-.048c-.368 0-.712.056-1.032.168l-1.056-1.008c.592-.656 1.096-.984 1.512-.984.24 0 .384-.088.432-.264.064-.16.096-.416.096-.768.192-1.264.472-3.344.84-6.24.304-2.432.52-4.072.648-4.92 0-.704.096-1.408.288-2.112.208-.704.464-1.344.768-1.92.24-.928.56-1.776.96-2.544.4-.768.912-1.608 1.536-2.52.032-.032.112-.104.24-.216.144-.112.32-.216.528-.312a1.35 1.35 0 01.648-.168c.224 0 .424.056.6.168.336.16.664.456.984.888.336.432.608.896.816 1.392.208.496.312.92.312 1.272.384.784.64 1.688.768 2.712.128 1.12.352 3.512.672 7.176.16 2.032.328 3.968.504 5.808v3.072c0 .08.032.168.096.264.064.112.104.184.12.216.176.208.264.384.264.528 0 .192-.16.36-.48.504l-.624-.144c-.48 0-.96.024-1.44.072-.16.016-.384.032-.672.048-.288.016-.552.024-.792.024-.096.016-.24.032-.432.048a2.938 2.938 0 01-.456.048c-.304 0-.456-.096-.456-.288 0-.176.072-.416.216-.72a4.66 4.66 0 01.552-.792c.224-.224.416-.336.576-.336zm-2.544-18.768c-.256.752-.52 1.568-.792 2.448-.256.88-.496 1.76-.72 2.64 0 .192-.072.576-.216 1.152-.16.704-.24 1.176-.24 1.416.656.192 1.296.32 1.92.384.64.048 1.328.072 2.064.072v-3.024c0-.72-.096-1.552-.288-2.496-.176-.96-.4-1.824-.672-2.592a.747.747 0 00-.096-.312c-.064-.128-.208-.192-.432-.192l-.528.504zm18.899 1.272c-.08-.08-.152-.232-.216-.456a5.355 5.355 0 01-.024-.6c0-.304-.016-.568-.048-.792a2.193 2.193 0 00-.216-.672c-.144-.144-.4-.216-.768-.216-.32 0-.696.04-1.128.12-.512.064-.872.096-1.08.096-.144.288-.216.672-.216 1.152 0 .384.04.816.12 1.296.064.512.096.872.096 1.08V41.04c0 .352-.024.68-.072.984a9.582 9.582 0 00-.048.792c0 .304.04.544.12.72.032.08.096.136.192.168s.176.056.24.072c.08.016.136.024.168.024.272.032.488.088.648.168.16.096.24.28.24.552a3.407 3.407 0 01-.192.168c-.096.08-.224.152-.384.216a.883.883 0 01-.432.12h-4.512c-.224 0-.368-.088-.432-.264-.048-.16-.072-.408-.072-.744.176 0 .424-.08.744-.24.32-.16.568-.24.744-.24l.024-4.2c0-.864-.008-1.472-.024-1.824a63.13 63.13 0 01-.024-2.016l.024-3.96v-3.504c0-1.248-.032-2.224-.096-2.928a8.615 8.615 0 00-.408-2.088 4.44 4.44 0 00-1.248-.168h-.12c-.784 0-1.432.176-1.944.528-.496.336-.744.856-.744 1.56 0 .176.024.376.072.6-.016.032-.08.08-.192.144a.665.665 0 01-.792-.144c0-.192-.032-.544-.096-1.056-.08-.72-.12-1.16-.12-1.32 0-.48.072-.864.216-1.152a8.671 8.671 0 011.608-.648c.512-.144 1.112-.216 1.8-.216.496 0 1.32-.016 2.472-.048a50.274 50.274 0 012.64-.072c1.184 0 2.168.056 2.952.168.8.112 1.304.384 1.512.816.208.592.312 1.168.312 1.728 0 .528-.104.96-.312 1.296-.208.336-.536.504-.984.504zm13.103 10.704c.064.4.096.856.096 1.368 0 1.472-.32 2.84-.96 4.104-.64 1.28-1.488 2.248-2.544 2.904-.448.224-.912.36-1.392.408-.464.048-1.144.072-2.04.072-.336 0-.824-.08-1.464-.24-.672-.16-1.168-.24-1.488-.24-.4 0-.696-.016-.888-.048a.687.687 0 01-.432-.264c-.096-.128-.144-.352-.144-.672v-.504h1.464c.08-.464.136-1.008.168-1.632v-.312c0-.688-.04-1.488-.12-2.4-.08-1.44-.12-2.328-.12-2.664 0-.592.016-1.032.048-1.32.016-1.04.08-2.2.192-3.48.128-1.824.192-3.184.192-4.08 0-.88-.048-1.752-.144-2.616h.024l-.24-1.848a2.85 2.85 0 01-.72-.072c-.16-.064-.24-.208-.24-.432v-.528c0-.208.088-.336.264-.384.176-.048.504-.072.984-.072.176 0 .552-.032 1.128-.096.8-.08 1.288-.12 1.464-.12.512 0 .904.072 1.176.216a.651.651 0 01.192.48c0 .256-.112.488-.336.696-.208.208-.48.312-.816.312-.096.512-.144 1.16-.144 1.944l.024 1.248c.016.272.024.688.024 1.248l-.048.6v1.104c.08.016.208.008.384-.024.192-.032.368-.048.528-.048.288 0 .552.056.792.168.256.096.584.256.984.48.112.048.28.136.504.264.32.16.584.32.792.48.224.16.536.44.936.84.416.416.784.96 1.104 1.632a8.11 8.11 0 01.72 2.256c.032.176.056.384.072.624.016.24.024.456.024.648zm-2.448 2.496c.144-.24.216-.616.216-1.128 0-.224-.008-.392-.024-.504l-.168-1.632-.096-.696a4.897 4.897 0 00-.288-1.008 40.244 40.244 0 00-.264-.744 4.136 4.136 0 01-.144-.168 2.212 2.212 0 01-.24-.48c-.512-.512-1-.896-1.464-1.152-.464-.272-.936-.408-1.416-.408a1.678 1.678 0 00-.408.864 7.833 7.833 0 00-.072 1.104v2.784h-.024v7.56c.64 0 1.152-.032 1.536-.096.384-.048.688-.176.912-.384l.984-.984c.224-.224.392-.512.504-.864.112-.352.168-.672.168-.96a2.12 2.12 0 00.24-.552c.032-.128.048-.312.048-.552zm-71.317 29.688c0 .16.048.28.144.36.096.064.288.16.576.288.192.064.44.176.744.336.544.544 1 1.288 1.368 2.232.384.944.576 1.992.576 3.144.064.4.096.864.096 1.392 0 1.536-.328 3-.984 4.392-.64 1.392-1.48 2.408-2.52 3.048-.448.224-.912.36-1.392.408-.464.048-1.144.072-2.04.072-.336 0-.824-.08-1.464-.24-.672-.16-1.168-.24-1.488-.24-.4 0-.696-.016-.888-.048a.687.687 0 01-.432-.264c-.096-.128-.144-.352-.144-.672v-.504h1.464c.096-.4.176-1.04.24-1.92.016-.448.024-1.136.024-2.064 0-.944.008-1.736.024-2.376.032-.656.104-1.312.216-1.968V61.56c-.656 0-1.152-.056-1.488-.168-.32-.112-.48-.384-.48-.816.208-.208.504-.336.888-.384.384-.064.904-.096 1.56-.096 1.632 0 2.912.056 3.84.168.928.112 1.608.384 2.04.816l.168.336c.064.096.112.184.144.264.24.416.408.784.504 1.104.112.32.168.728.168 1.224.08.224.12.504.12.84 0 .608-.16 1.248-.48 1.92-.304.656-.672 1.208-1.104 1.656zm-2.952-6.864c-.224.224-.36.464-.408.72-.048.256-.072.672-.072 1.248 0 .896.024 1.584.072 2.064.048.464.184.92.408 1.368.08.08.168.12.264.12.128 0 .256-.056.384-.168a6.07 6.07 0 00.456-.528l.36-.408c.224-.64.392-1.192.504-1.656.128-.48.192-.912.192-1.296s-.064-.704-.192-.96a1.462 1.462 0 00-.864-.408 5.91 5.91 0 00-1.104-.096zm2.952 19.104c.208-.208.336-.488.384-.84a5.91 5.91 0 00.096-1.104c.24-.256.376-.424.408-.504.048-.08.072-.24.072-.48.144-.288.216-.704.216-1.248 0-.224-.04-.752-.12-1.584-.064-.576-.096-.944-.096-1.104l.024-.816c0-.192-.024-.376-.072-.552a4.05 4.05 0 00-.288-.696v-.024a.213.213 0 00.024-.096l-.048-.36a3.248 3.248 0 00-.144-.312 26.17 26.17 0 00-.24-.576c-.48-.48-1-.84-1.56-1.08-.56-.256-1.096-.384-1.608-.384a1.678 1.678 0 00-.408.864 7.833 7.833 0 00-.072 1.104v11.256c.64 0 1.152-.032 1.536-.096.384-.048.688-.176.912-.384l.984-.984zm15.175-16.752a1.735 1.735 0 01-.216-.456 4.138 4.138 0 01-.024-.528c0-.256-.016-.456-.048-.6a.647.647 0 00-.216-.36c-.32-.176-.648-.344-.984-.504-.736 0-1.384.032-1.944.096a3.891 3.891 0 00-1.464.408 1.22 1.22 0 00-.36.624c-.048.24-.072.576-.072 1.008 0 .752-.016 1.528-.048 2.328l-.024 1.392c0 .24.04.72.12 1.44.064.48.096.816.096 1.008 0 .384-.072.72-.216 1.008.224.192.584.32 1.08.384.512.048 1.128.072 1.848.072 0-.4.024-.736.072-1.008.064-.288.208-.432.432-.432.24 0 .4.024.48.072.08.032.248.168.504.408-.08.16-.12.336-.12.528-.016.08-.024.216-.024.408 0 .336.024.688.072 1.056.032.448.048.768.048.96 0 .32-.04.568-.12.744-.064.16-.184.24-.36.24a9.927 9.927 0 00-.312-.192 2.372 2.372 0 01-.456-.36c-.144-.144-.216-.288-.216-.432v-.504h-2.424c-.176.512-.264 1.192-.264 2.04 0 .544.024 1.08.072 1.608.032.64.048 1.08.048 1.32 0 .064.024.936.072 2.616.048.704.072 1.28.072 1.728.656.224 1.24.36 1.752.408.528.048 1.248.072 2.16.072.24-.112.384-.28.432-.504.048-.144.072-.376.072-.696 0-.336.024-.6.072-.792.064-.176.2-.32.408-.432.432 0 .704.216.816.648.112.448.168 1.04.168 1.776 0 .224-.08.432-.24.624-.144.208-.392.496-.744.864h-2.472c-1.632 0-3.024-.032-4.176-.096a28.577 28.577 0 01-3.648-.408v-.984h1.968a16.67 16.67 0 00.216-2.784c0-.56-.032-1.432-.096-2.616-.08-1.04-.12-2.008-.12-2.904v-12.24h-1.968v-.984c.672-.176 1.68-.344 3.024-.504 1.28-.16 2.232-.32 2.856-.48h4.896c.032.032.088.096.168.192.08.08.152.2.216.36.08.144.12.288.12.432 0 .192.04.464.12.816.08.56.12.896.12 1.008 0 .352-.088.624-.264.816-.176.192-.496.288-.96.288zm13.549-2.424a.55.55 0 00.072.288l.192.192c.176.144.264.304.264.48 0 .752-.032 1.36-.096 1.824-.064.448-.208.672-.432.672-.272 0-.448-.112-.528-.336-.08-.224-.144-.576-.192-1.056-.032-.592-.12-.96-.264-1.104a7.015 7.015 0 00-2.184-.36c-.704 0-1.304.12-1.8.36-.208.208-.464.632-.768 1.272-.288.608-.536 1.016-.744 1.224 0 .08-.032.216-.096.408-.064.192-.192.392-.384.6-.24.912-.392 1.768-.456 2.568-.048.784-.072 1.928-.072 3.432v2.976c.736 4.176 1.904 6.68 3.504 7.512.256.128.544.192.864.192.32 0 .648-.064.984-.192.336-.112.72-.288 1.152-.528.128-.24.2-.512.216-.816.016-.192.024-.504.024-.936 0-.416.008-.76.024-1.032a2.21 2.21 0 01.216-.72c.272 0 .48.024.624.072.144.064.288.152.432.264.016.016.064.048.144.096.096.064.2.096.312.096v3.504c-.448 1.072-1.584 1.608-3.408 1.608-.688 0-1.384-.056-2.088-.168a49.509 49.509 0 01-2.472-.48 15.14 15.14 0 00-.912-.792 13.802 13.802 0 01-1.176-1.032 6.831 6.831 0 01-.912-1.176 41.49 41.49 0 00-.504-2.112 62.813 62.813 0 01-.768-3.456c-.16-.96-.24-1.92-.24-2.88.096-.512.224-1.28.384-2.304.192-1.184.368-2.16.528-2.928.16-.784.36-1.536.6-2.256.128-.144.272-.376.432-.696a1.81 1.81 0 01.528-.816c.576-.816 1.344-1.512 2.304-2.088a6.041 6.041 0 013.192-.888c.416.128.768.224 1.056.288.624.176 1.104.344 1.44.504.336.144.672.384 1.008.72zm12.232 2.424a1.735 1.735 0 01-.216-.456 4.138 4.138 0 01-.024-.528c0-.256-.016-.456-.048-.6a.647.647 0 00-.216-.36c-.32-.176-.648-.344-.984-.504-.736 0-1.384.032-1.944.096a3.891 3.891 0 00-1.464.408 1.22 1.22 0 00-.36.624c-.048.24-.072.576-.072 1.008 0 .752-.016 1.528-.048 2.328l-.024 1.392c0 .24.04.72.12 1.44.064.48.096.816.096 1.008 0 .384-.072.72-.216 1.008.224.192.584.32 1.08.384.512.048 1.128.072 1.848.072 0-.4.024-.736.072-1.008.064-.288.208-.432.432-.432.24 0 .4.024.48.072.08.032.248.168.504.408-.08.16-.12.336-.12.528-.016.08-.024.216-.024.408 0 .336.024.688.072 1.056.032.448.048.768.048.96 0 .32-.04.568-.12.744-.064.16-.184.24-.36.24a9.927 9.927 0 00-.312-.192 2.372 2.372 0 01-.456-.36c-.144-.144-.216-.288-.216-.432v-.504h-2.424c-.176.512-.264 1.192-.264 2.04 0 .544.024 1.08.072 1.608.032.64.048 1.08.048 1.32 0 .064.024.936.072 2.616.048.704.072 1.28.072 1.728.656.224 1.24.36 1.752.408.528.048 1.248.072 2.16.072.24-.112.384-.28.432-.504.048-.144.072-.376.072-.696 0-.336.024-.6.072-.792.064-.176.2-.32.408-.432.432 0 .704.216.816.648.112.448.168 1.04.168 1.776 0 .224-.08.432-.24.624-.144.208-.392.496-.744.864h-2.472c-1.632 0-3.024-.032-4.176-.096a28.577 28.577 0 01-3.648-.408v-.984h1.968a16.67 16.67 0 00.216-2.784c0-.56-.032-1.432-.096-2.616-.08-1.04-.12-2.008-.12-2.904v-12.24h-1.968v-.984c.672-.176 1.68-.344 3.024-.504 1.28-.16 2.232-.32 2.856-.48h4.896c.032.032.088.096.168.192.08.08.152.2.216.36.08.144.12.288.12.432 0 .192.04.464.12.816.08.56.12.896.12 1.008 0 .352-.088.624-.264.816-.176.192-.496.288-.96.288zm3.325 18.6c.16-.304.264-.592.312-.864a9.93 9.93 0 00.12-1.08c0-.288.024-.6.072-.936.208-1.52.664-3.688 1.368-6.504l.624-2.568c.768-3.328 1.232-6.592 1.392-9.792l.48-.504c.56-.176 1.024-.264 1.392-.264.384 0 .704.104.96.312.256.192.456.512.6.96.208 1.872.472 3.856.792 5.952.32 2.096.744 4.704 1.272 7.824.608 3.584 1.016 6.072 1.224 7.464.336 0 .608.056.816.168.224.112.448.384.672.816a.59.59 0 01-.096.264c-.064.112-.2.192-.408.24a3.313 3.313 0 01-.696.072c-.4 0-.864-.04-1.392-.12-.8-.096-1.4-.136-1.8-.12-.384 0-.72.056-1.008.168a1.66 1.66 0 01-.192-.744c0-.24.056-.456.168-.648.128-.176.304-.36.528-.552a31.004 31.004 0 01-.672-3.888 101.083 101.083 0 01-.288-4.56c-.096-2.384-.224-4.216-.384-5.496-.144-.336-.288-.576-.432-.72-.128-.16-.312-.24-.552-.24a37.191 37.191 0 01-.576 3.336 80.119 80.119 0 01-.936 3.936 131.363 131.363 0 00-1.056 4.488 30.4 30.4 0 00-.528 3.6c.192 0 .36.088.504.264.16.16.32.24.48.24v.48c0 .08-.032.184-.096.312-.048.128-.176.192-.384.192-.256 0-.656-.016-1.2-.048l-1.104-.024c-.352 0-.672.024-.96.072a7.515 7.515 0 01-.168-.384 1.885 1.885 0 01-.096-.6c0-.24.072-.384.216-.432.16-.048.504-.072 1.032-.072zm24.306-.816c-.16.288-.368.568-.624.84a3.98 3.98 0 01-.72.624c-.928.592-1.912.888-2.952.888s-2.008-.28-2.904-.84c-.88-.544-1.536-1.216-1.968-2.016a23.44 23.44 0 01-1.488-3.456 15.6 15.6 0 01-.408-2.568 62.166 62.166 0 01-.072-3.288c0-.208-.016-.504-.048-.888a13.361 13.361 0 01-.048-.936c0-.368.032-.744.096-1.128.016-.096.064-.36.144-.792.08-.432.12-.792.12-1.08.032-.16.088-.464.168-.912.064-.432.128-.776.192-1.032.08-.256.2-.456.36-.6.176-.24.44-.632.792-1.176.48-.736.888-1.312 1.224-1.728a5.066 5.066 0 011.296-1.08c.528-.304 1.144-.456 1.848-.456.32 0 .568.016.744.048.96 0 1.72.144 2.28.432.576.288 1.112.8 1.608 1.536.752.496 1.384 1.264 1.896 2.304.528 1.04.848 2.184.96 3.432.064.656.096 1.52.096 2.592v1.056c0 1.632-.136 3.016-.408 4.152-.48 2.272-1.208 4.296-2.184 6.072zm-2.136-.336c.208-.528.44-1.2.696-2.016.272-.816.472-1.504.6-2.064a8.562 8.562 0 00.384-1.968c.064-.656.096-1.472.096-2.448 0-.336.032-.76.096-1.272 0-.096.008-.264.024-.504.032-.256.048-.496.048-.72 0-.224-.008-.48-.024-.768a15.987 15.987 0 00-.048-.696c-.064-.64-.096-1.12-.096-1.44-.16-.32-.32-.8-.48-1.44-.16-.672-.328-1.176-.504-1.512l-.264-.576c-.288-.624-.544-1.112-.768-1.464a2.158 2.158 0 00-.864-.792c-.32 0-.64-.016-.96-.048a11.399 11.399 0 00-1.032-.048c-.48.48-.864.984-1.152 1.512-.288.512-.56 1.144-.816 1.896a4.123 4.123 0 00-.432 1.32c-.048.432-.072.976-.072 1.632a27.627 27.627 0 00-.192 3.408c0 2.256.232 4.712.696 7.368.112.224.2.464.264.72.08.256.136.424.168.504.096.336.176.592.24.768.08.192.184.352.312.48.128 0 .208.024.24.072.048.048.088.152.12.312a.73.73 0 00.192.384c.256.256.672.384 1.248.384.496 0 .968-.096 1.416-.288.464-.176.752-.408.864-.696z" fill="#111"/></svg>