<svg width="50" height="16" fill="none" xmlns="http://www.w3.org/2000/svg"><path d="M44.86.757h-9.626c.56 3.178 3.645 6.168 7.01 6.168h7.663C50 6.645 50 6.178 50 5.897c0-2.803-2.336-5.14-5.14-5.14z" fill="url(#paint0_linear)"/><path d="M36.075 7.486v7.757h4.673v-4.112h4.112c2.243 0 4.206-1.589 4.86-3.645H36.075zM19.626.757V15.15h4.112s1.028 0 1.589-1.028a1486.03 1486.03 0 003.645-7.197h.56v8.225h4.674V.757h-4.113s-1.028.094-1.588 1.028c-2.337 4.766-3.645 7.196-3.645 7.196h-.561V.757h-4.673zM0 15.243V.851h4.673s1.308 0 2.056 2.056c1.87 5.42 2.056 6.168 2.056 6.168s.374-1.309 2.056-6.168C11.59.85 12.897.85 12.897.85h4.673v14.392h-4.673V7.486h-.56L9.72 15.243H7.664L5.047 7.486h-.561v7.757H0z" fill="#4FAD50"/><defs><linearGradient id="paint0_linear" x1="35.217" y1="3.885" x2="49.967" y2="3.885" gradientUnits="userSpaceOnUse"><stop stop-color="#27B1E6"/><stop offset="1" stop-color="#148ACA"/></linearGradient></defs></svg>