<svg width="30" height="30" fill="none" xmlns="http://www.w3.org/2000/svg"><path d="M23.388 18.863c.499.214.712.926.712 1.282.071.57-.071.854-.285.854-.213 0-.498-.214-.783-.712-.284-.498-.427-.996-.284-1.281.213-.143.427-.214.64-.143zM20.47 21.07c.285 0 .64.142.997.427.569.498.783 1.068.498 1.495-.143.213-.498.356-.783.356-.356 0-.712-.143-.926-.356-.57-.498-.712-1.21-.355-1.637.07-.143.284-.285.569-.285z" fill="#F28A1A"/><path d="M13.708 26.693c-7.403 0-13.383-5.979-13.383-13.31C.325 6.05 6.305 0 13.708 0 21.11 0 27.09 5.98 27.09 13.382c0 2.492-.712 4.84-1.85 6.834-.072.07-.143.07-.143-.071-.498-3.275-2.492-5.054-5.339-5.624-.285-.071-.285-.213.071-.213.926-.072 2.136-.072 2.848.07.07-.355.07-.711.07-.996 0-4.84-3.985-8.826-8.826-8.826-4.84 0-8.826 3.986-8.826 8.826S9.08 22.21 13.92 22.21h.427c-.142-.783-.213-1.566-.142-2.42 0-.57.142-.641.356-.214 1.21 2.136 2.99 3.986 6.406 4.77 2.776.64 5.552 1.352 8.613 5.124.285.356-.142.712-.427.427-3.06-2.704-5.837-3.63-8.4-3.63-3.203.071-5.125.427-7.046.427z" fill="#F28A1A"/></svg>