<svg width="32" height="30" fill="none" xmlns="http://www.w3.org/2000/svg"><path d="M20.058 14.42l-3.26-3.55-3.624 3.188 3.26 3.623 3.624-3.26zM10.565 7.971l3.261 3.55 3.623-3.188-3.26-3.55-3.624 3.188zM22.594 20.58l-3.26-3.551-3.624 3.26 3.261 3.552 3.623-3.261z" fill="#137ABE"/><path d="M18.826 26.522l-5.942-6.595 1.667-1.449-4.203-4.637 1.667-1.45-4.203-4.637 6.594-5.87 2.101 2.246 3.623-3.116 2.102 2.174 1.377-1.231c-.29-.145-.652-.363-.942-.508C20.565.58 18.319 0 15.927 0 7.595 0 .784 6.74.784 15S7.594 30 16 30c2.754 0 5.29-.725 7.464-1.956.725-.435 1.377-.87 2.029-1.305l-3.044-3.406-3.623 3.189z" fill="#137ABE"/><path d="M17.232 6.232l2.391 2.681 2.754-2.391-2.464-2.681-2.681 2.39zM24.84 11.884l-2.463-2.681-2.681 2.464 2.463 2.608 2.682-2.39zM27.16 17.536l-2.464-2.68-2.681 2.39L24.478 20l2.681-2.464zM27.305 8.696l-1.812 1.594L27.16 12.1l1.739-1.594-1.595-1.811zM27.812 15.58l1.594 1.811 1.812-1.594-1.667-1.812-1.74 1.595zM23.174 5l1.667 1.812 1.739-1.595-1.594-1.811L23.174 5zM24.406 22.681l2.464 2.681 2.68-2.391-2.463-2.681-2.681 2.391z" fill="#137ABE"/></svg>