<svg width="28" height="25" fill="none" xmlns="http://www.w3.org/2000/svg"><path d="M27.267 10.18c-.14-.836-.905-1.392-1.948-1.392h-.974c-.627-.07-.766.139-.766.626v7.236c0 1.253-1.252 2.575-2.713 2.853-4.593 1.044-9.185 2.018-13.777 3.062-.487.139-1.044.139-1.6.139-.21 0-.557-.14-.627-.348-.07-.14.14-.418.278-.557.21-.139.487-.278.766-.417.835-.279 1.74-.557 2.574-.835 3.41-1.113 6.82-2.227 10.229-3.41 1.53-.487 2.365-1.53 2.365-2.852.07-4.175 0-8.42 0-12.594 0-.696-.348-1.253-1.113-1.531-.905-.348-1.74-.07-2.505.278-4.87 2.296-9.672 4.592-14.542 6.889-1.392.695-2.227 1.67-2.227 3.061v11.898c0 .21 0 .418.07.557C1.244 24.165 2.497 25 4.167 25h20.387c.765 0 1.39-.14 1.948-.626.695-.557.695-1.322.695-2.018 0-3.423.07-12.177.07-12.177zM13.073 8.926c.347-.905 1.113-1.461 2.226-1.6.765-.07 1.392.348 1.53 1.043.14 1.044-1.112 2.296-2.434 2.296-1.044 0-1.67-.765-1.322-1.739z" fill="#E47418"/></svg>