<svg viewBox="0 0 220 100" xmlns="http://www.w3.org/2000/svg" xmlns:xlink="http://www.w3.org/1999/xlink"><style>:root&gt;svg{display:none}:root&gt;svg:target{display:block}</style><svg fill="none" viewBox="0 0 50 22" id="applePay" xmlns="http://www.w3.org/2000/svg"><path d="M41.513 21.41c2.305 0 3.39-.878 4.337-3.544L50 6.225h-2.403l-2.783 9.006h-.05l-2.782-8.994H39.51l4.004 11.08-.215.674a1.878 1.878 0 01-1.992 1.582c-.186 0-.547-.02-.694-.039v1.83c.298.04.6.06.899.059v-.012zm-8.008-5.829c-1.26 0-2.06-.61-2.06-1.533 0-.957.77-1.514 2.246-1.602l2.627-.166v.86a2.57 2.57 0 01-2.813 2.452v-.011zm-.635 1.806a3.91 3.91 0 003.487-1.943h.049v1.83h2.188v-7.58c0-2.197-1.758-3.613-4.464-3.613-2.51 0-4.366 1.435-4.434 3.408h2.13a2.075 2.075 0 012.236-1.553c1.445 0 2.256.674 2.256 1.914v.84l-2.948.175c-2.745.166-4.23 1.29-4.23 3.243-.001 1.981 1.532 3.29 3.73 3.29v-.012zM20.194 4.037h2.725c2.051 0 3.223 1.094 3.223 3.018 0 1.925-1.172 3.028-3.232 3.028h-2.716V4.037zM17.83 2.045V17.27h2.363v-5.19h3.273a4.832 4.832 0 005.087-5.02 4.779 4.779 0 00-5.01-5l-5.713-.015zM9.985 4.886c-1.358-.078-2.52.772-3.164.772-.644 0-1.64-.732-2.715-.712a4.011 4.011 0 00-3.409 2.07c-1.464 2.52-.38 6.251 1.035 8.302.694 1.016 1.525 2.13 2.618 2.09 1.035-.039 1.445-.674 2.696-.674 1.25 0 1.621.674 2.715.653 1.132-.019 1.846-1.016 2.541-2.033a8.92 8.92 0 001.133-2.338 3.68 3.68 0 01-2.207-3.354 3.761 3.761 0 011.787-3.144 3.87 3.87 0 00-3.027-1.641l-.003.01zm-.847-1.345a3.072 3.072 0 01-2.461 1.162 3.483 3.483 0 01.879-2.548 3.671 3.671 0 012.44-1.26 3.704 3.704 0 01-.86 2.643" fill="#fff"/></svg><svg fill="none" viewBox="0 0 14 9" id="arrow-down" xmlns="http://www.w3.org/2000/svg"><path fill-rule="evenodd" clip-rule="evenodd" d="M12.296.793l1.414 1.414-6.707 6.707L.296 2.207 1.71.793l5.293 5.293L12.296.793z" fill="#111"/></svg><svg fill="none" viewBox="0 0 14 24" id="arrow-left" xmlns="http://www.w3.org/2000/svg"><path d="M.492 13.188l10.32 10.32a1.68 1.68 0 102.377-2.377L4.057 12l9.131-9.13A1.68 1.68 0 0010.813.491L.492 10.812A1.675 1.675 0 000 12c0 .43.164.86.492 1.188z" fill="#646464"/></svg><svg fill="none" viewBox="0 0 14 24" id="arrow-right" xmlns="http://www.w3.org/2000/svg"><path d="M13.189 13.188l-10.32 10.32A1.68 1.68 0 11.492 21.13L9.623 12 .493 2.87A1.68 1.68 0 012.868.491l10.32 10.32c.328.328.492.758.492 1.188 0 .43-.164.86-.492 1.188z" fill="#646464"/></svg><svg viewBox="-3 -3 36 42" id="bag" xmlns="http://www.w3.org/2000/svg"><path fill-rule="evenodd" clip-rule="evenodd" d="M26.667 9h-3.334C23.333 4.4 19.6.667 15 .667A8.336 8.336 0 006.667 9H3.333A3.343 3.343 0 000 12.333v20c0 1.834 1.5 3.334 3.333 3.334h23.334c1.833 0 3.333-1.5 3.333-3.334v-20C30 10.5 28.5 9 26.667 9zM15 4c2.767 0 5 2.233 5 5H10c0-2.767 2.233-5 5-5zm-8.333 8.333c0 4.6 3.733 8.334 8.333 8.334s8.333-3.734 8.333-8.334H20c0 2.767-2.233 5-5 5s-5-2.233-5-5H6.667z" fill="#333"/></svg><svg viewBox="-3 -3 40 37" id="favorites" xmlns="http://www.w3.org/2000/svg"><path d="M24.5 0c-2.9 0-5.683 1.35-7.5 3.483C15.183 1.35 12.4 0 9.5 0 4.367 0 .333 4.033.333 9.167.333 15.467 6 20.6 14.583 28.4L17 30.583l2.417-2.2C28 20.6 33.667 15.467 33.667 9.167 33.667 4.033 29.633 0 24.5 0z"/></svg><svg fill="none" viewBox="0 0 18 20" id="garbage" xmlns="http://www.w3.org/2000/svg"><path fill-rule="evenodd" clip-rule="evenodd" d="M6.5.833h5c.92 0 1.667.747 1.667 1.667v.833h2.5c.92 0 1.667.747 1.667 1.667v1.667c0 .92-.747 1.666-1.667 1.666H15.6l-.766 9.167c0 .92-.746 1.667-1.667 1.667H4.834c-.92 0-1.667-.747-1.664-1.598L2.4 8.333h-.066c-.92 0-1.667-.746-1.667-1.666V5c0-.92.746-1.667 1.667-1.667h2.5V2.5c0-.92.746-1.667 1.666-1.667zM2.334 5h13.333v1.667H2.334V5zm1.738 3.333h9.856l-.758 9.098-.003.069H4.834l-.762-9.167zM11.5 2.5v.833h-5V2.5h5z" fill="#333"/><path d="M13.167 3.333h-.25v.25h.25v-.25zm2.433 5v-.25h-.23l-.019.23.25.02zm-.766 9.167l-.25-.02v.02h.25zm-11.664.07h.25v-.01l-.001-.012-.25.021zM2.4 8.332l.25-.02-.02-.23H2.4v.25zm2.434-5v.25h.25v-.25h-.25zM2.334 5v-.25h-.25V5h.25zm13.333 0h.25v-.25h-.25V5zm0 1.667v.25h.25v-.25h-.25zm-13.333 0h-.25v.25h.25v-.25zm11.594 1.666l.25.021.022-.27h-.272v.25zm-9.856 0v-.25h-.271l.022.271.25-.02zm9.098 9.098l-.25-.021v.01l.25.01zm-.003.069v.25h.24l.01-.24-.25-.01zm-8.333 0l-.25.02.02.23h.23v-.25zM11.5 3.333v.25h.25v-.25h-.25zm0-.833h.25v-.25h-.25v.25zm-5 .833h-.25v.25h.25v-.25zm0-.833v-.25h-.25v.25h.25zm5-1.917h-5v.5h5v-.5zM13.417 2.5A1.917 1.917 0 0011.5.583v.5c.783 0 1.417.635 1.417 1.417h.5zm0 .833V2.5h-.5v.833h.5zm2.25-.25h-2.5v.5h2.5v-.5zM17.584 5a1.917 1.917 0 00-1.917-1.917v.5c.782 0 1.417.635 1.417 1.417h.5zm0 1.667V5h-.5v1.667h.5zm-1.917 1.916a1.917 1.917 0 001.917-1.916h-.5c0 .782-.635 1.416-1.417 1.416v.5zm-.067 0h.067v-.5H15.6v.5zm-.517 8.938l.766-9.167-.498-.042-.767 9.167.499.042zm-1.916 1.896a1.917 1.917 0 001.917-1.917h-.5c0 .782-.635 1.417-1.417 1.417v.5zm-8.333 0h8.333v-.5H4.834v.5zM2.92 17.568c-.003.997.862 1.849 1.914 1.849v-.5c-.79 0-1.416-.641-1.414-1.347l-.5-.002zm-.77-9.214l.77 9.236.498-.042-.77-9.235-.498.041zm.183.23H2.4v-.5h-.066v.5zM.417 6.666c0 1.058.858 1.916 1.917 1.916v-.5A1.417 1.417 0 01.917 6.667h-.5zM.417 5v1.667h.5V5h-.5zm1.917-1.917A1.917 1.917 0 00.417 5h.5c0-.782.634-1.417 1.417-1.417v-.5zm2.5 0h-2.5v.5h2.5v-.5zm-.25-.583v.833h.5V2.5h-.5zM6.5.583A1.917 1.917 0 004.584 2.5h.5c0-.782.634-1.417 1.416-1.417v-.5zM4.834 4.75h-2.5v.5h2.5v-.5zm8.333 0H4.834v.5h8.333v-.5zm2.5 0h-2.5v.5h2.5v-.5zm.25 1.917V5h-.5v1.667h.5zm-13.583.25h13.333v-.5H2.334v.5zM2.084 5v1.667h.5V5h-.5zm11.844 3.083H4.072v.5h9.856v-.5zm-.509 9.368l.758-9.097-.498-.041-.758 9.097.498.041zm-.002.06l.003-.07-.5-.02-.003.069.5.02zm-8.583.239h8.333v-.5H4.834v.5zm-1.01-9.396l.76 9.167.499-.042-.761-9.166-.499.041zm7.926-5.02V2.5h-.5v.833h.5zm-5.25.25h5v-.5h-5v.5zM6.25 2.5v.833h.5V2.5h-.5zm5.25-.25h-5v.5h5v-.5z" fill="#fff"/></svg><svg fill="none" viewBox="0 0 50 21" id="googlePay" xmlns="http://www.w3.org/2000/svg"><path d="M23.647 10.344v5.78H21.8V1.85h4.897a4.455 4.455 0 013.171 1.236 3.972 3.972 0 011.325 3.012 3.932 3.932 0 01-1.325 3.03c-.856.81-1.913 1.216-3.17 1.215h-3.051zm0-6.736V8.59h3.096a2.455 2.455 0 001.827-.738 2.431 2.431 0 00.742-1.744 2.417 2.417 0 00-.742-1.744 2.408 2.408 0 00-1.827-.758h-3.096v.002zm11.8 2.432c1.365 0 2.442.361 3.232 1.086.79.724 1.184 1.717 1.183 2.979v6.019h-1.766v-1.355h-.08c-.764 1.116-1.781 1.674-3.05 1.674-1.084 0-1.99-.32-2.72-.957a3.058 3.058 0 01-1.094-2.392c0-1.01.385-1.814 1.154-2.41.77-.597 1.796-.896 3.08-.898 1.097 0 2 .2 2.71.598v-.419a2.075 2.075 0 00-.763-1.623 2.625 2.625 0 00-1.783-.668c-1.03 0-1.847.432-2.448 1.296l-1.626-1.017c.894-1.276 2.218-1.914 3.971-1.914zm-2.389 7.094a1.454 1.454 0 00.613 1.196c.408.32.915.488 1.434.479a2.954 2.954 0 002.077-.857c.612-.572.918-1.242.918-2.012-.576-.456-1.379-.684-2.409-.684-.75 0-1.375.18-1.876.54-.505.364-.756.807-.756 1.338zM50 6.358l-6.165 14.07h-1.906l2.288-4.923-4.054-9.147h2.007l2.93 7.015h.04l2.85-7.015H50z" fill="#E4E5E7"/><path d="M16.186 9.098c0-.559-.047-1.116-.143-1.667H8.257v3.158h4.46a3.809 3.809 0 01-1.65 2.492v2.05h2.662c1.559-1.427 2.457-3.538 2.457-6.033z" fill="#4285F4"/><path d="M8.257 17.111c2.228 0 4.104-.726 5.472-1.98l-2.662-2.05c-.74.5-1.695.784-2.81.784-2.154 0-3.982-1.441-4.636-3.384H.88v2.112a8.221 8.221 0 003.044 3.298 8.3 8.3 0 004.334 1.22z" fill="#34A853"/><path d="M3.621 10.48a4.88 4.88 0 010-3.138V5.23H.88a8.154 8.154 0 000 7.364l2.742-2.112z" fill="#FBBC04"/><path d="M8.257 3.957a4.5 4.5 0 013.167 1.23l2.357-2.34A7.964 7.964 0 008.257.71a8.3 8.3 0 00-4.334 1.22 8.221 8.221 0 00-3.044 3.3l2.742 2.113C4.275 5.4 6.103 3.958 8.257 3.958z" fill="#EA4335"/></svg><svg fill="none" viewBox="0 0 10 13" id="location" xmlns="http://www.w3.org/2000/svg"><path fill-rule="evenodd" clip-rule="evenodd" d="M.917 4.75A4.08 4.08 0 015 .667 4.08 4.08 0 019.083 4.75C9.083 7.813 5 12.333 5 12.333S.917 7.813.917 4.75zm2.625 0a1.459 1.459 0 102.917-.001 1.459 1.459 0 00-2.917.001z" fill="#3844A9"/></svg><svg fill="none" viewBox="0 0 220 100" id="logo" xmlns="http://www.w3.org/2000/svg"><path d="M15.297 11.801h-.008a3.53 3.53 0 00-2.508 1.039 3.563 3.563 0 00-1.053 2.54v53.658c0 1.968 1.607 3.572 3.583 3.577 8.33.02 22.284 1.756 31.911 11.83V28.292a3.43 3.43 0 00-.492-1.813c-7.9-12.724-23.085-14.657-31.433-14.677z" fill="#111"/><path d="M88.272 69.038V15.379c0-.96-.374-1.862-1.053-2.54a3.528 3.528 0 00-2.507-1.038h-.009c-8.347.02-23.531 1.953-31.433 14.678a3.429 3.429 0 00-.492 1.812v56.154c9.627-10.074 23.582-11.81 31.911-11.83 1.976-.005 3.583-1.61 3.583-3.577z" fill="#3844A9"/><path d="M96.422 24.175h-2.594v44.863c0 5.024-4.094 9.12-9.125 9.133-7.065.017-18.715 1.398-26.965 9.207 14.269-3.494 29.31-1.223 37.883.73a3.571 3.571 0 003.034-.69A3.558 3.558 0 00100 84.621V27.753a3.582 3.582 0 00-3.578-3.578zM6.172 69.038V24.176H3.578A3.582 3.582 0 000 27.752V84.62c0 1.095.49 2.113 1.345 2.795a3.568 3.568 0 003.034.692c8.572-1.954 23.614-4.225 37.882-.731-8.25-7.808-19.899-9.19-26.964-9.206-5.031-.013-9.125-4.11-9.125-9.133zm127.22-26.006c.128.128.304.256.528.384.16.112.272.2.336.264.08.08.12.192.12.336l-.48.888a1.809 1.809 0 01-.504.096 2.769 2.769 0 01-.24.024l-2.76-.024-1.152.024c-.192-.192-.288-.336-.288-.432 0-.08.064-.184.192-.312.128-.112.224-.2.288-.264 0-.112.04-.208.12-.288.08-.064.2-.136.36-.216.16-.08.28-.152.36-.216a.32.32 0 00.12-.264c.144-1.104.216-2.032.216-2.784a20.752 20.752 0 00-.072-1.512c-.096-.96-.144-2-.144-3.12 0-.208.016-.432.048-.672.048-.24.08-.392.096-.456-.32.416-.792.744-1.416.984a5.71 5.71 0 01-1.944.336 4.35 4.35 0 01-.768-.048l-.408-.072c-.512-.096-.944-.256-1.296-.48-1.072-.608-1.8-1.664-2.184-3.168-.272-.384-.48-1.032-.624-1.944a13.835 13.835 0 01-.144-2.496l.072-1.44.024-1.272c0-.96-.112-1.688-.336-2.184-.032 0-.096-.008-.192-.024a3.209 3.209 0 01-.336-.168c-.144-.08-.288-.2-.432-.36a1.694 1.694 0 01-.12-.168.688.688 0 01-.072-.312c0-.176.08-.344.24-.504l1.968.096c.144.016.32.016.528 0 .224-.032.392-.048.504-.048.416-.032.744-.048.984-.048.608 0 1.064.096 1.368.288.256.016.48.136.672.36.192.208.28.432.264.672-.016.224-.168.36-.456.408-.288.032-.632.04-1.032.024-.176.16-.288.328-.336.504a5.006 5.006 0 00-.048.816 5.355 5.355 0 00-.024.6c-.016.4-.08.976-.192 1.728-.096.736-.2 1.272-.312 1.608-.016.576.008 1.08.072 1.512.064.432.16.912.288 1.44.096.352.16.616.192.792.112.56.328 1.072.648 1.536.336.448.696.632 1.08.552.352.08.672.12.96.12.928 0 1.816-.32 2.664-.96l-.072-.768v-4.032c0-1.392-.032-2.544-.096-3.456-.048-.928-.16-1.568-.336-1.92-.064-.096-.2-.176-.408-.24a4.407 4.407 0 00-.552-.024c-.24 0-.432-.008-.576-.024a.773.773 0 01-.384-.216v-.984c.672-.336 1.424-.504 2.256-.504.288 0 .504.008.648.024.768.032 1.208.048 1.32.048.304 0 .544-.008.72-.024.176-.016.336-.024.48-.024.24.112.424.28.552.504.128.208.192.424.192.648a.893.893 0 01-.192.576c-.128.16-.312.24-.552.24-.224.432-.368.952-.432 1.56a30.86 30.86 0 00-.072 2.376 7.119 7.119 0 00-.072 1.008c0 .576.056 1.256.168 2.04.096.896.144 1.576.144 2.04a30.397 30.397 0 00-.24 3.912c0 .944.088 2.136.264 3.576.16 1.536.24 2.712.24 3.528zm15.794 0c.128.128.304.256.528.384.16.112.272.2.336.264.08.08.12.192.12.336v.72c-.016.016-.064.032-.144.048-.08.032-.192.072-.336.12-.192.064-.36.096-.504.096a2.769 2.769 0 01-.24.024h-.576c-.272-.016-.968-.024-2.088-.024l-1.152.024c-.192-.192-.288-.336-.288-.432 0-.08.064-.184.192-.312.128-.112.224-.2.288-.264 0-.112.04-.208.12-.288.08-.064.2-.136.36-.216.16-.08.28-.152.36-.216a.32.32 0 00.12-.264c.144-1.104.216-2.448.216-4.032 0-1.232-.04-2.624-.12-4.176-.064-1.824-.096-3.16-.096-4.008v-2.448c0-1.376-.032-2.448-.096-3.216l-1.8 4.776a2.9 2.9 0 00-.096.264c-.048.128-.12.296-.216.504a59.65 59.65 0 00-.48 1.08c-.288.64-.504 1.232-.648 1.776a24.53 24.53 0 01-.72 2.232c-.24.656-.552 1.44-.936 2.352a53.762 53.762 0 00-1.248 3.24c-.032.032-.168.376-.408 1.032-.416 1.056-.64 1.592-.672 1.608-.336.752-.712 1.128-1.128 1.128-.288 0-.536-.2-.744-.6-.208-.384-.312-.888-.312-1.512v-1.944c0-1.12.064-2.464.192-4.032.112-1.184.168-2.176.168-2.976 0-.72-.048-1.496-.144-2.328v-5.328a4.146 4.146 0 01-.216-.816 12.252 12.252 0 01-.024-.912c0-.4-.016-.728-.048-.984a1.997 1.997 0 00-.216-.72c-.032 0-.096-.008-.192-.024-.08-.016-.2-.064-.36-.144a1.98 1.98 0 01-.432-.336.549.549 0 01-.144-.168.847.847 0 01-.072-.336c0-.176.072-.336.216-.48h1.968c.24 0 .616-.04 1.128-.12.352-.064.592-.096.72-.096.288 0 .576.072.864.216.256 0 .48.104.672.312.208.208.312.432.312.672 0 .224-.144.368-.432.432a6.378 6.378 0 01-1.032.072c-.16.16-.24.712-.24 1.656 0 .48.04 1.44.12 2.88.048.544.072.968.072 1.272 0 .864-.024 1.976-.072 3.336-.032 1.344-.056 2.016-.072 2.016v-.384l-.072 4.656a14.37 14.37 0 00.576-1.68c.08-.288.16-.528.24-.72.064-.144.144-.312.24-.504.096-.208.16-.384.192-.528.048-.144.072-.296.072-.456.096-.24.24-.568.432-.984.4-.88.712-1.672.936-2.376.448-1.104 1.6-4.064 3.456-8.88.016-.352.128-.656.336-.912.208-.256.488-.376.84-.36l1.248.048c.288 0 .52-.008.696-.024.176-.016.336-.024.48-.024.24.112.424.28.552.504.128.208.192.424.192.648a.893.893 0 01-.192.576c-.128.16-.312.24-.552.24-.224.432-.368.952-.432 1.56a30.86 30.86 0 00-.072 2.376v8.28c0 .976.088 2.288.264 3.936.16 1.792.24 3.088.24 3.888zm14.117-17.496c-.08-.08-.152-.232-.216-.456a5.355 5.355 0 01-.024-.6c0-.304-.016-.568-.048-.792a2.193 2.193 0 00-.216-.672c-.144-.144-.4-.216-.768-.216-.32 0-.696.04-1.128.12-.512.064-.872.096-1.08.096-.144.288-.216.672-.216 1.152 0 .384.04.816.12 1.296.064.512.096.872.096 1.08V41.04c0 .352-.024.68-.072.984a9.582 9.582 0 00-.048.792c0 .304.04.544.12.72.032.08.096.136.192.168s.176.056.24.072c.08.016.136.024.168.024.272.032.488.088.648.168.16.096.24.28.24.552a3.407 3.407 0 01-.192.168c-.096.08-.224.152-.384.216a.883.883 0 01-.432.12h-4.512c-.224 0-.368-.088-.432-.264-.048-.16-.072-.408-.072-.744.176 0 .424-.08.744-.24.32-.16.568-.24.744-.24l.024-4.2c0-.864-.008-1.472-.024-1.824a63.13 63.13 0 01-.024-2.016l.024-3.96v-3.504c0-1.248-.032-2.224-.096-2.928a8.615 8.615 0 00-.408-2.088 4.44 4.44 0 00-1.248-.168h-.12c-.784 0-1.432.176-1.944.528-.496.336-.744.856-.744 1.56 0 .176.024.376.072.6-.016.032-.08.08-.192.144a.665.665 0 01-.792-.144c0-.192-.032-.544-.096-1.056-.08-.72-.12-1.16-.12-1.32 0-.48.072-.864.216-1.152a8.671 8.671 0 011.608-.648c.512-.144 1.112-.216 1.8-.216.496 0 1.32-.016 2.472-.048a50.274 50.274 0 012.64-.072c1.184 0 2.168.056 2.952.168.8.112 1.304.384 1.512.816.208.592.312 1.168.312 1.728 0 .528-.104.96-.312 1.296-.208.336-.536.504-.984.504zm9.332 17.496c0-2.128-.032-3.904-.096-5.328-.048-1.424-.192-2.696-.432-3.816-.32 0-.84-.072-1.56-.216-1.024-.192-1.832-.288-2.424-.288-.24.224-.392.536-.456.936-.048.4-.072.952-.072 1.656-.24.896-.392 1.872-.456 2.928-.064 1.056-.096 2.44-.096 4.152.144.112.28.184.408.216.096.016.232.024.408.024.16 0 .296.008.408.024a.722.722 0 01.312.192c0 .256-.008.472-.024.648a2.114 2.114 0 01-.048.36c-.416.288-.84.44-1.272.456-.08.016-.208.024-.384.024-.304 0-.6-.024-.888-.072a11.393 11.393 0 00-.864-.048c-.368 0-.712.056-1.032.168l-1.056-1.008c.592-.656 1.096-.984 1.512-.984.24 0 .384-.088.432-.264.064-.16.096-.416.096-.768.192-1.264.472-3.344.84-6.24.304-2.432.52-4.072.648-4.92 0-.704.096-1.408.288-2.112.208-.704.464-1.344.768-1.92.24-.928.56-1.776.96-2.544.4-.768.912-1.608 1.536-2.52.032-.032.112-.104.24-.216.144-.112.32-.216.528-.312a1.35 1.35 0 01.648-.168c.224 0 .424.056.6.168.336.16.664.456.984.888.336.432.608.896.816 1.392.208.496.312.92.312 1.272.384.784.64 1.688.768 2.712.128 1.12.352 3.512.672 7.176.16 2.032.328 3.968.504 5.808v3.072c0 .08.032.168.096.264.064.112.104.184.12.216.176.208.264.384.264.528 0 .192-.16.36-.48.504l-.624-.144c-.48 0-.96.024-1.44.072-.16.016-.384.032-.672.048-.288.016-.552.024-.792.024-.096.016-.24.032-.432.048a2.938 2.938 0 01-.456.048c-.304 0-.456-.096-.456-.288 0-.176.072-.416.216-.72a4.66 4.66 0 01.552-.792c.224-.224.416-.336.576-.336zm-2.544-18.768c-.256.752-.52 1.568-.792 2.448-.256.88-.496 1.76-.72 2.64 0 .192-.072.576-.216 1.152-.16.704-.24 1.176-.24 1.416.656.192 1.296.32 1.92.384.64.048 1.328.072 2.064.072v-3.024c0-.72-.096-1.552-.288-2.496-.176-.96-.4-1.824-.672-2.592a.747.747 0 00-.096-.312c-.064-.128-.208-.192-.432-.192l-.528.504zm18.899 1.272c-.08-.08-.152-.232-.216-.456a5.355 5.355 0 01-.024-.6c0-.304-.016-.568-.048-.792a2.193 2.193 0 00-.216-.672c-.144-.144-.4-.216-.768-.216-.32 0-.696.04-1.128.12-.512.064-.872.096-1.08.096-.144.288-.216.672-.216 1.152 0 .384.04.816.12 1.296.064.512.096.872.096 1.08V41.04c0 .352-.024.68-.072.984a9.582 9.582 0 00-.048.792c0 .304.04.544.12.72.032.08.096.136.192.168s.176.056.24.072c.08.016.136.024.168.024.272.032.488.088.648.168.16.096.24.28.24.552a3.407 3.407 0 01-.192.168c-.096.08-.224.152-.384.216a.883.883 0 01-.432.12h-4.512c-.224 0-.368-.088-.432-.264-.048-.16-.072-.408-.072-.744.176 0 .424-.08.744-.24.32-.16.568-.24.744-.24l.024-4.2c0-.864-.008-1.472-.024-1.824a63.13 63.13 0 01-.024-2.016l.024-3.96v-3.504c0-1.248-.032-2.224-.096-2.928a8.615 8.615 0 00-.408-2.088 4.44 4.44 0 00-1.248-.168h-.12c-.784 0-1.432.176-1.944.528-.496.336-.744.856-.744 1.56 0 .176.024.376.072.6-.016.032-.08.08-.192.144a.665.665 0 01-.792-.144c0-.192-.032-.544-.096-1.056-.08-.72-.12-1.16-.12-1.32 0-.48.072-.864.216-1.152a8.671 8.671 0 011.608-.648c.512-.144 1.112-.216 1.8-.216.496 0 1.32-.016 2.472-.048a50.274 50.274 0 012.64-.072c1.184 0 2.168.056 2.952.168.8.112 1.304.384 1.512.816.208.592.312 1.168.312 1.728 0 .528-.104.96-.312 1.296-.208.336-.536.504-.984.504zm13.103 10.704c.064.4.096.856.096 1.368 0 1.472-.32 2.84-.96 4.104-.64 1.28-1.488 2.248-2.544 2.904-.448.224-.912.36-1.392.408-.464.048-1.144.072-2.04.072-.336 0-.824-.08-1.464-.24-.672-.16-1.168-.24-1.488-.24-.4 0-.696-.016-.888-.048a.687.687 0 01-.432-.264c-.096-.128-.144-.352-.144-.672v-.504h1.464c.08-.464.136-1.008.168-1.632v-.312c0-.688-.04-1.488-.12-2.4-.08-1.44-.12-2.328-.12-2.664 0-.592.016-1.032.048-1.32.016-1.04.08-2.2.192-3.48.128-1.824.192-3.184.192-4.08 0-.88-.048-1.752-.144-2.616h.024l-.24-1.848a2.85 2.85 0 01-.72-.072c-.16-.064-.24-.208-.24-.432v-.528c0-.208.088-.336.264-.384.176-.048.504-.072.984-.072.176 0 .552-.032 1.128-.096.8-.08 1.288-.12 1.464-.12.512 0 .904.072 1.176.216a.651.651 0 01.192.48c0 .256-.112.488-.336.696-.208.208-.48.312-.816.312-.096.512-.144 1.16-.144 1.944l.024 1.248c.016.272.024.688.024 1.248l-.048.6v1.104c.08.016.208.008.384-.024.192-.032.368-.048.528-.048.288 0 .552.056.792.168.256.096.584.256.984.48.112.048.28.136.504.264.32.16.584.32.792.48.224.16.536.44.936.84.416.416.784.96 1.104 1.632a8.11 8.11 0 01.72 2.256c.032.176.056.384.072.624.016.24.024.456.024.648zm-2.448 2.496c.144-.24.216-.616.216-1.128 0-.224-.008-.392-.024-.504l-.168-1.632-.096-.696a4.897 4.897 0 00-.288-1.008 40.244 40.244 0 00-.264-.744 4.136 4.136 0 01-.144-.168 2.212 2.212 0 01-.24-.48c-.512-.512-1-.896-1.464-1.152-.464-.272-.936-.408-1.416-.408a1.678 1.678 0 00-.408.864 7.833 7.833 0 00-.072 1.104v2.784h-.024v7.56c.64 0 1.152-.032 1.536-.096.384-.048.688-.176.912-.384l.984-.984c.224-.224.392-.512.504-.864.112-.352.168-.672.168-.96a2.12 2.12 0 00.24-.552c.032-.128.048-.312.048-.552zm-71.317 29.688c0 .16.048.28.144.36.096.064.288.16.576.288.192.064.44.176.744.336.544.544 1 1.288 1.368 2.232.384.944.576 1.992.576 3.144.064.4.096.864.096 1.392 0 1.536-.328 3-.984 4.392-.64 1.392-1.48 2.408-2.52 3.048-.448.224-.912.36-1.392.408-.464.048-1.144.072-2.04.072-.336 0-.824-.08-1.464-.24-.672-.16-1.168-.24-1.488-.24-.4 0-.696-.016-.888-.048a.687.687 0 01-.432-.264c-.096-.128-.144-.352-.144-.672v-.504h1.464c.096-.4.176-1.04.24-1.92.016-.448.024-1.136.024-2.064 0-.944.008-1.736.024-2.376.032-.656.104-1.312.216-1.968V61.56c-.656 0-1.152-.056-1.488-.168-.32-.112-.48-.384-.48-.816.208-.208.504-.336.888-.384.384-.064.904-.096 1.56-.096 1.632 0 2.912.056 3.84.168.928.112 1.608.384 2.04.816l.168.336c.064.096.112.184.144.264.24.416.408.784.504 1.104.112.32.168.728.168 1.224.08.224.12.504.12.84 0 .608-.16 1.248-.48 1.92-.304.656-.672 1.208-1.104 1.656zm-2.952-6.864c-.224.224-.36.464-.408.72-.048.256-.072.672-.072 1.248 0 .896.024 1.584.072 2.064.048.464.184.92.408 1.368.08.08.168.12.264.12.128 0 .256-.056.384-.168a6.07 6.07 0 00.456-.528l.36-.408c.224-.64.392-1.192.504-1.656.128-.48.192-.912.192-1.296s-.064-.704-.192-.96a1.462 1.462 0 00-.864-.408 5.91 5.91 0 00-1.104-.096zm2.952 19.104c.208-.208.336-.488.384-.84a5.91 5.91 0 00.096-1.104c.24-.256.376-.424.408-.504.048-.08.072-.24.072-.48.144-.288.216-.704.216-1.248 0-.224-.04-.752-.12-1.584-.064-.576-.096-.944-.096-1.104l.024-.816c0-.192-.024-.376-.072-.552a4.05 4.05 0 00-.288-.696v-.024a.213.213 0 00.024-.096l-.048-.36a3.248 3.248 0 00-.144-.312 26.17 26.17 0 00-.24-.576c-.48-.48-1-.84-1.56-1.08-.56-.256-1.096-.384-1.608-.384a1.678 1.678 0 00-.408.864 7.833 7.833 0 00-.072 1.104v11.256c.64 0 1.152-.032 1.536-.096.384-.048.688-.176.912-.384l.984-.984zm15.175-16.752a1.735 1.735 0 01-.216-.456 4.138 4.138 0 01-.024-.528c0-.256-.016-.456-.048-.6a.647.647 0 00-.216-.36c-.32-.176-.648-.344-.984-.504-.736 0-1.384.032-1.944.096a3.891 3.891 0 00-1.464.408 1.22 1.22 0 00-.36.624c-.048.24-.072.576-.072 1.008 0 .752-.016 1.528-.048 2.328l-.024 1.392c0 .24.04.72.12 1.44.064.48.096.816.096 1.008 0 .384-.072.72-.216 1.008.224.192.584.32 1.08.384.512.048 1.128.072 1.848.072 0-.4.024-.736.072-1.008.064-.288.208-.432.432-.432.24 0 .4.024.48.072.08.032.248.168.504.408-.08.16-.12.336-.12.528-.016.08-.024.216-.024.408 0 .336.024.688.072 1.056.032.448.048.768.048.96 0 .32-.04.568-.12.744-.064.16-.184.24-.36.24a9.927 9.927 0 00-.312-.192 2.372 2.372 0 01-.456-.36c-.144-.144-.216-.288-.216-.432v-.504h-2.424c-.176.512-.264 1.192-.264 2.04 0 .544.024 1.08.072 1.608.032.64.048 1.08.048 1.32 0 .064.024.936.072 2.616.048.704.072 1.28.072 1.728.656.224 1.24.36 1.752.408.528.048 1.248.072 2.16.072.24-.112.384-.28.432-.504.048-.144.072-.376.072-.696 0-.336.024-.6.072-.792.064-.176.2-.32.408-.432.432 0 .704.216.816.648.112.448.168 1.04.168 1.776 0 .224-.08.432-.24.624-.144.208-.392.496-.744.864h-2.472c-1.632 0-3.024-.032-4.176-.096a28.577 28.577 0 01-3.648-.408v-.984h1.968a16.67 16.67 0 00.216-2.784c0-.56-.032-1.432-.096-2.616-.08-1.04-.12-2.008-.12-2.904v-12.24h-1.968v-.984c.672-.176 1.68-.344 3.024-.504 1.28-.16 2.232-.32 2.856-.48h4.896c.032.032.088.096.168.192.08.08.152.2.216.36.08.144.12.288.12.432 0 .192.04.464.12.816.08.56.12.896.12 1.008 0 .352-.088.624-.264.816-.176.192-.496.288-.96.288zm13.549-2.424a.55.55 0 00.072.288l.192.192c.176.144.264.304.264.48 0 .752-.032 1.36-.096 1.824-.064.448-.208.672-.432.672-.272 0-.448-.112-.528-.336-.08-.224-.144-.576-.192-1.056-.032-.592-.12-.96-.264-1.104a7.015 7.015 0 00-2.184-.36c-.704 0-1.304.12-1.8.36-.208.208-.464.632-.768 1.272-.288.608-.536 1.016-.744 1.224 0 .08-.032.216-.096.408-.064.192-.192.392-.384.6-.24.912-.392 1.768-.456 2.568-.048.784-.072 1.928-.072 3.432v2.976c.736 4.176 1.904 6.68 3.504 7.512.256.128.544.192.864.192.32 0 .648-.064.984-.192.336-.112.72-.288 1.152-.528.128-.24.2-.512.216-.816.016-.192.024-.504.024-.936 0-.416.008-.76.024-1.032a2.21 2.21 0 01.216-.72c.272 0 .48.024.624.072.144.064.288.152.432.264.016.016.064.048.144.096.096.064.2.096.312.096v3.504c-.448 1.072-1.584 1.608-3.408 1.608-.688 0-1.384-.056-2.088-.168a49.509 49.509 0 01-2.472-.48 15.14 15.14 0 00-.912-.792 13.802 13.802 0 01-1.176-1.032 6.831 6.831 0 01-.912-1.176 41.49 41.49 0 00-.504-2.112 62.813 62.813 0 01-.768-3.456c-.16-.96-.24-1.92-.24-2.88.096-.512.224-1.28.384-2.304.192-1.184.368-2.16.528-2.928.16-.784.36-1.536.6-2.256.128-.144.272-.376.432-.696a1.81 1.81 0 01.528-.816c.576-.816 1.344-1.512 2.304-2.088a6.041 6.041 0 013.192-.888c.416.128.768.224 1.056.288.624.176 1.104.344 1.44.504.336.144.672.384 1.008.72zm12.232 2.424a1.735 1.735 0 01-.216-.456 4.138 4.138 0 01-.024-.528c0-.256-.016-.456-.048-.6a.647.647 0 00-.216-.36c-.32-.176-.648-.344-.984-.504-.736 0-1.384.032-1.944.096a3.891 3.891 0 00-1.464.408 1.22 1.22 0 00-.36.624c-.048.24-.072.576-.072 1.008 0 .752-.016 1.528-.048 2.328l-.024 1.392c0 .24.04.72.12 1.44.064.48.096.816.096 1.008 0 .384-.072.72-.216 1.008.224.192.584.32 1.08.384.512.048 1.128.072 1.848.072 0-.4.024-.736.072-1.008.064-.288.208-.432.432-.432.24 0 .4.024.48.072.08.032.248.168.504.408-.08.16-.12.336-.12.528-.016.08-.024.216-.024.408 0 .336.024.688.072 1.056.032.448.048.768.048.96 0 .32-.04.568-.12.744-.064.16-.184.24-.36.24a9.927 9.927 0 00-.312-.192 2.372 2.372 0 01-.456-.36c-.144-.144-.216-.288-.216-.432v-.504h-2.424c-.176.512-.264 1.192-.264 2.04 0 .544.024 1.08.072 1.608.032.64.048 1.08.048 1.32 0 .064.024.936.072 2.616.048.704.072 1.28.072 1.728.656.224 1.24.36 1.752.408.528.048 1.248.072 2.16.072.24-.112.384-.28.432-.504.048-.144.072-.376.072-.696 0-.336.024-.6.072-.792.064-.176.2-.32.408-.432.432 0 .704.216.816.648.112.448.168 1.04.168 1.776 0 .224-.08.432-.24.624-.144.208-.392.496-.744.864h-2.472c-1.632 0-3.024-.032-4.176-.096a28.577 28.577 0 01-3.648-.408v-.984h1.968a16.67 16.67 0 00.216-2.784c0-.56-.032-1.432-.096-2.616-.08-1.04-.12-2.008-.12-2.904v-12.24h-1.968v-.984c.672-.176 1.68-.344 3.024-.504 1.28-.16 2.232-.32 2.856-.48h4.896c.032.032.088.096.168.192.08.08.152.2.216.36.08.144.12.288.12.432 0 .192.04.464.12.816.08.56.12.896.12 1.008 0 .352-.088.624-.264.816-.176.192-.496.288-.96.288zm3.325 18.6c.16-.304.264-.592.312-.864a9.93 9.93 0 00.12-1.08c0-.288.024-.6.072-.936.208-1.52.664-3.688 1.368-6.504l.624-2.568c.768-3.328 1.232-6.592 1.392-9.792l.48-.504c.56-.176 1.024-.264 1.392-.264.384 0 .704.104.96.312.256.192.456.512.6.96.208 1.872.472 3.856.792 5.952.32 2.096.744 4.704 1.272 7.824.608 3.584 1.016 6.072 1.224 7.464.336 0 .608.056.816.168.224.112.448.384.672.816a.59.59 0 01-.096.264c-.064.112-.2.192-.408.24a3.313 3.313 0 01-.696.072c-.4 0-.864-.04-1.392-.12-.8-.096-1.4-.136-1.8-.12-.384 0-.72.056-1.008.168a1.66 1.66 0 01-.192-.744c0-.24.056-.456.168-.648.128-.176.304-.36.528-.552a31.004 31.004 0 01-.672-3.888 101.083 101.083 0 01-.288-4.56c-.096-2.384-.224-4.216-.384-5.496-.144-.336-.288-.576-.432-.72-.128-.16-.312-.24-.552-.24a37.191 37.191 0 01-.576 3.336 80.119 80.119 0 01-.936 3.936 131.363 131.363 0 00-1.056 4.488 30.4 30.4 0 00-.528 3.6c.192 0 .36.088.504.264.16.16.32.24.48.24v.48c0 .08-.032.184-.096.312-.048.128-.176.192-.384.192-.256 0-.656-.016-1.2-.048l-1.104-.024c-.352 0-.672.024-.96.072a7.515 7.515 0 01-.168-.384 1.885 1.885 0 01-.096-.6c0-.24.072-.384.216-.432.16-.048.504-.072 1.032-.072zm24.306-.816c-.16.288-.368.568-.624.84a3.98 3.98 0 01-.72.624c-.928.592-1.912.888-2.952.888s-2.008-.28-2.904-.84c-.88-.544-1.536-1.216-1.968-2.016a23.44 23.44 0 01-1.488-3.456 15.6 15.6 0 01-.408-2.568 62.166 62.166 0 01-.072-3.288c0-.208-.016-.504-.048-.888a13.361 13.361 0 01-.048-.936c0-.368.032-.744.096-1.128.016-.096.064-.36.144-.792.08-.432.12-.792.12-1.08.032-.16.088-.464.168-.912.064-.432.128-.776.192-1.032.08-.256.2-.456.36-.6.176-.24.44-.632.792-1.176.48-.736.888-1.312 1.224-1.728a5.066 5.066 0 011.296-1.08c.528-.304 1.144-.456 1.848-.456.32 0 .568.016.744.048.96 0 1.72.144 2.28.432.576.288 1.112.8 1.608 1.536.752.496 1.384 1.264 1.896 2.304.528 1.04.848 2.184.96 3.432.064.656.096 1.52.096 2.592v1.056c0 1.632-.136 3.016-.408 4.152-.48 2.272-1.208 4.296-2.184 6.072zm-2.136-.336c.208-.528.44-1.2.696-2.016.272-.816.472-1.504.6-2.064a8.562 8.562 0 00.384-1.968c.064-.656.096-1.472.096-2.448 0-.336.032-.76.096-1.272 0-.096.008-.264.024-.504.032-.256.048-.496.048-.72 0-.224-.008-.48-.024-.768a15.987 15.987 0 00-.048-.696c-.064-.64-.096-1.12-.096-1.44-.16-.32-.32-.8-.48-1.44-.16-.672-.328-1.176-.504-1.512l-.264-.576c-.288-.624-.544-1.112-.768-1.464a2.158 2.158 0 00-.864-.792c-.32 0-.64-.016-.96-.048a11.399 11.399 0 00-1.032-.048c-.48.48-.864.984-1.152 1.512-.288.512-.56 1.144-.816 1.896a4.123 4.123 0 00-.432 1.32c-.048.432-.072.976-.072 1.632a27.627 27.627 0 00-.192 3.408c0 2.256.232 4.712.696 7.368.112.224.2.464.264.72.08.256.136.424.168.504.096.336.176.592.24.768.08.192.184.352.312.48.128 0 .208.024.24.072.048.048.088.152.12.312a.73.73 0 00.192.384c.256.256.672.384 1.248.384.496 0 .968-.096 1.416-.288.464-.176.752-.408.864-.696z" fill="#111"/></svg><svg fill="none" viewBox="0 0 50 16" id="mir" xmlns="http://www.w3.org/2000/svg"><path d="M44.86.757h-9.626c.56 3.178 3.645 6.168 7.01 6.168h7.663C50 6.645 50 6.178 50 5.897c0-2.803-2.336-5.14-5.14-5.14z" fill="url(#kpaint0_linear)"/><path d="M36.075 7.486v7.757h4.673v-4.112h4.112c2.243 0 4.206-1.589 4.86-3.645H36.075zM19.626.757V15.15h4.112s1.028 0 1.589-1.028a1486.03 1486.03 0 003.645-7.197h.56v8.225h4.674V.757h-4.113s-1.028.094-1.588 1.028c-2.337 4.766-3.645 7.196-3.645 7.196h-.561V.757h-4.673zM0 15.243V.851h4.673s1.308 0 2.056 2.056c1.87 5.42 2.056 6.168 2.056 6.168s.374-1.309 2.056-6.168C11.59.85 12.897.85 12.897.85h4.673v14.392h-4.673V7.486h-.56L9.72 15.243H7.664L5.047 7.486h-.561v7.757H0z" fill="#4FAD50"/><defs><linearGradient id="kpaint0_linear" x1="35.217" y1="3.885" x2="49.967" y2="3.885" gradientUnits="userSpaceOnUse"><stop stop-color="#27B1E6"/><stop offset="1" stop-color="#148ACA"/></linearGradient></defs></svg><svg fill="none" viewBox="0 0 20 21" id="pfavorites" xmlns="http://www.w3.org/2000/svg"><path d="M13.75 3A4.99 4.99 0 0010 4.742 4.99 4.99 0 006.25 3C3.683 3 1.667 5.017 1.667 7.583c0 3.15 2.833 5.717 7.125 9.617L10 18.292l1.208-1.1c4.292-3.892 7.125-6.459 7.125-9.609C18.333 5.017 16.317 3 13.75 3z" fill="#3844A9"/></svg><svg fill="none" viewBox="0 0 30 30" id="qiwi" xmlns="http://www.w3.org/2000/svg"><path d="M23.388 18.863c.499.214.712.926.712 1.282.071.57-.071.854-.285.854-.213 0-.498-.214-.783-.712-.284-.498-.427-.996-.284-1.281.213-.143.427-.214.64-.143zM20.47 21.07c.285 0 .64.142.997.427.569.498.783 1.068.498 1.495-.143.213-.498.356-.783.356-.356 0-.712-.143-.926-.356-.57-.498-.712-1.21-.355-1.637.07-.143.284-.285.569-.285z" fill="#F28A1A"/><path d="M13.708 26.693c-7.403 0-13.383-5.979-13.383-13.31C.325 6.05 6.305 0 13.708 0 21.11 0 27.09 5.98 27.09 13.382c0 2.492-.712 4.84-1.85 6.834-.072.07-.143.07-.143-.071-.498-3.275-2.492-5.054-5.339-5.624-.285-.071-.285-.213.071-.213.926-.072 2.136-.072 2.848.07.07-.355.07-.711.07-.996 0-4.84-3.985-8.826-8.826-8.826-4.84 0-8.826 3.986-8.826 8.826S9.08 22.21 13.92 22.21h.427c-.142-.783-.213-1.566-.142-2.42 0-.57.142-.641.356-.214 1.21 2.136 2.99 3.986 6.406 4.77 2.776.64 5.552 1.352 8.613 5.124.285.356-.142.712-.427.427-3.06-2.704-5.837-3.63-8.4-3.63-3.203.071-5.125.427-7.046.427z" fill="#F28A1A"/></svg><svg fill="none" viewBox="0 0 20 20" id="search" xmlns="http://www.w3.org/2000/svg"><path d="M.24 18.578l5.576-5.688a7.975 7.975 0 01-1.73-4.973C4.086 3.552 7.568 0 11.848 0c4.28 0 7.762 3.552 7.762 7.917s-3.482 7.916-7.762 7.916a7.632 7.632 0 01-4.877-1.765l-5.576 5.688a.807.807 0 01-1.155 0 .844.844 0 010-1.178zm11.608-4.411c3.38 0 6.128-2.804 6.128-6.25 0-3.447-2.749-6.25-6.128-6.25-3.38 0-6.128 2.803-6.128 6.25 0 3.446 2.748 6.25 6.128 6.25z" fill="#CCC"/></svg><svg viewBox="-3 -3 38 38" id="user" xmlns="http://www.w3.org/2000/svg"><path fill-rule="evenodd" clip-rule="evenodd" d="M24 8c0 4.42-3.58 8-8 8s-8-3.58-8-8 3.58-8 8-8 8 3.58 8 8zM0 28c0-5.32 10.66-8 16-8s16 2.68 16 8v4H0v-4z" fill="#333"/></svg><svg fill="none" viewBox="0 0 32 30" id="webmoney" xmlns="http://www.w3.org/2000/svg"><path d="M20.058 14.42l-3.26-3.55-3.624 3.188 3.26 3.623 3.624-3.26zm-9.493-6.449l3.261 3.55 3.623-3.188-3.26-3.55-3.624 3.188zM22.594 20.58l-3.26-3.551-3.624 3.26 3.261 3.552 3.623-3.261z" fill="#137ABE"/><path d="M18.826 26.522l-5.942-6.595 1.667-1.449-4.203-4.637 1.667-1.45-4.203-4.637 6.594-5.87 2.101 2.246 3.623-3.116 2.102 2.174 1.377-1.231c-.29-.145-.652-.363-.942-.508C20.565.58 18.319 0 15.927 0 7.595 0 .784 6.74.784 15S7.594 30 16 30c2.754 0 5.29-.725 7.464-1.956.725-.435 1.377-.87 2.029-1.305l-3.044-3.406-3.623 3.189z" fill="#137ABE"/><path d="M17.232 6.232l2.391 2.681 2.754-2.391-2.464-2.681-2.681 2.39zm7.608 5.652l-2.463-2.681-2.681 2.464 2.463 2.608 2.682-2.39zm2.32 5.652l-2.464-2.68-2.681 2.39L24.478 20l2.681-2.464zm.145-8.84l-1.812 1.594 1.667 1.81 1.739-1.594-1.595-1.811zm.507 6.884l1.594 1.811 1.812-1.594-1.667-1.812-1.74 1.595zM23.174 5l1.667 1.812 1.739-1.595-1.594-1.811L23.174 5zm1.232 17.681l2.464 2.681 2.68-2.391-2.463-2.681-2.681 2.391z" fill="#137ABE"/></svg><svg fill="none" viewBox="0 0 28 25" id="yandexPay" xmlns="http://www.w3.org/2000/svg"><path d="M27.267 10.18c-.14-.836-.905-1.392-1.948-1.392h-.974c-.627-.07-.766.139-.766.626v7.236c0 1.253-1.252 2.575-2.713 2.853-4.593 1.044-9.185 2.018-13.777 3.062-.487.139-1.044.139-1.6.139-.21 0-.557-.14-.627-.348-.07-.14.14-.418.278-.557a7.67 7.67 0 01.766-.417c.835-.279 1.74-.557 2.574-.835 3.41-1.113 6.82-2.227 10.229-3.41 1.53-.487 2.365-1.53 2.365-2.852.07-4.175 0-8.42 0-12.594 0-.696-.348-1.253-1.113-1.531-.905-.348-1.74-.07-2.505.278-4.87 2.296-9.672 4.592-14.542 6.889-1.392.695-2.227 1.67-2.227 3.061v11.898c0 .21 0 .418.07.557C1.244 24.165 2.497 25 4.167 25h20.387c.765 0 1.39-.14 1.948-.626.695-.557.695-1.322.695-2.018 0-3.423.07-12.177.07-12.177zM13.073 8.926c.347-.905 1.113-1.461 2.226-1.6.765-.07 1.392.348 1.53 1.043.14 1.044-1.112 2.296-2.434 2.296-1.044 0-1.67-.765-1.322-1.739z" fill="#E47418"/></svg></svg>