<svg width="50" height="22" fill="none" xmlns="http://www.w3.org/2000/svg"><path d="M41.513 21.41c2.305 0 3.39-.878 4.337-3.544L50 6.225h-2.403l-2.783 9.006h-.05l-2.782-8.994H39.51l4.004 11.08-.215.674a1.878 1.878 0 01-1.992 1.582c-.186 0-.547-.02-.694-.039v1.83c.298.04.6.06.899.059v-.012zm-8.008-5.829c-1.26 0-2.06-.61-2.06-1.533 0-.957.77-1.514 2.246-1.602l2.627-.166v.86a2.57 2.57 0 01-2.813 2.452v-.011zm-.635 1.806a3.91 3.91 0 003.487-1.943h.049v1.83h2.188v-7.58c0-2.197-1.758-3.613-4.464-3.613-2.51 0-4.366 1.435-4.434 3.408h2.13a2.075 2.075 0 012.236-1.553c1.445 0 2.256.674 2.256 1.914v.84l-2.948.175c-2.745.166-4.23 1.29-4.23 3.243-.001 1.981 1.532 3.29 3.73 3.29v-.012zM20.194 4.037h2.725c2.051 0 3.223 1.094 3.223 3.018 0 1.925-1.172 3.028-3.232 3.028h-2.716V4.037zM17.83 2.045V17.27h2.363v-5.19h3.273a4.832 4.832 0 005.087-5.02 4.779 4.779 0 00-5.01-5l-5.713-.015zM9.985 4.886c-1.358-.078-2.52.772-3.164.772-.644 0-1.64-.732-2.715-.712a4.011 4.011 0 00-3.409 2.07c-1.464 2.52-.38 6.251 1.035 8.302.694 1.016 1.525 2.13 2.618 2.09 1.035-.039 1.445-.674 2.696-.674 1.25 0 1.621.674 2.715.653 1.132-.019 1.846-1.016 2.541-2.033a8.92 8.92 0 001.133-2.338 3.68 3.68 0 01-2.207-3.354 3.761 3.761 0 011.787-3.144 3.87 3.87 0 00-3.027-1.641l-.003.01zm-.847-1.345a3.072 3.072 0 01-2.461 1.162 3.483 3.483 0 01.879-2.548 3.671 3.671 0 012.44-1.26 3.704 3.704 0 01-.86 2.643" fill="#fff"/></svg>