<svg xmlns="http://www.w3.org/2000/svg" width="50" height="21" fill="none"><path fill="#E4E5E7" d="M23.6 10.3v5.8h-1.8V1.8h4.9a4.5 4.5 0 013.2 1.3 4 4 0 011.3 3 4 4 0 01-1.3 3c-.9.8-2 1.2-3.2 1.2h-3zm0-6.7v5h3.1a2.5 2.5 0 001.9-.7 2.4 2.4 0 00.7-1.8 2.4 2.4 0 00-.7-1.7 2.4 2.4 0 00-1.9-.8h-3zM35.4 6c1.4 0 2.5.4 3.3 1.1.8.8 1.2 1.7 1.2 3v6H38v-1.3a3.5 3.5 0 01-3.1 1.6c-1.1 0-2-.3-2.8-1a3 3 0 01-1-2.3c0-1 .3-1.8 1.1-2.4a5 5 0 013-1c1.2 0 2 .3 2.8.7V10a2 2 0 00-.8-1.7 2.6 2.6 0 00-1.7-.6c-1 0-1.9.4-2.5 1.3l-1.6-1c.9-1.3 2.2-2 4-2zm-2.3 7.1a1.5 1.5 0 00.6 1.2c.4.3.9.5 1.4.5a3 3 0 002-.8c.7-.6 1-1.3 1-2-.6-.5-1.4-.7-2.4-.7-.8 0-1.4.1-1.9.5s-.7.8-.7 1.3zM50 6.4l-6.2 14H42l2.3-4.9-4-9.1h2l2.9 7 2.9-7h2z"/><path fill="#4285F4" d="M16.2 9.1c0-.6 0-1.1-.2-1.7H8.3v3.2h4.4a3.8 3.8 0 01-1.6 2.5v2h2.6a8 8 0 002.5-6z"/><path fill="#34A853" d="M8.3 17.1a8 8 0 005.4-2l-2.6-2a5 5 0 01-2.8.8 5 5 0 01-4.7-3.4H1v2a8.2 8.2 0 003 3.4A8.3 8.3 0 008.3 17z"/><path fill="#FBBC04" d="M3.6 10.5a4.9 4.9 0 010-3.2v-2H1a8.2 8.2 0 000 7.3l2.7-2.1z"/><path fill="#EA4335" d="M8.3 4a4.5 4.5 0 013.1 1.2l2.4-2.4a8 8 0 00-5.5-2 8.3 8.3 0 00-4.4 1.1 8.2 8.2 0 00-3 3.3l2.7 2.1A5 5 0 018.3 4z"/></svg>