<svg xmlns="http://www.w3.org/2000/svg" width="50" height="16" fill="none"><path fill="url(#paint0_linear)" d="M44.9.8h-9.7c.6 3.1 3.7 6.1 7 6.1H50l.1-1C50 3.1 47.7.8 44.9.8z"/><path fill="#4FAD50" d="M36 7.5v7.7h4.7v-4H45c2.2 0 4.2-1.7 4.8-3.7H36.1zM19.7.8V15h4.1s1 0 1.6-1A1486 1486 0 0029 7h.5v8.3h4.7V.7h-4.1s-1 0-1.6 1L24.9 9h-.6V.8h-4.7zM0 15.2V1h4.7s1.3 0 2 2c1.9 5.4 2 6.2 2 6.2L10.8 3c.8-2 2.1-2 2.1-2h4.7v14.3h-4.7V7.5h-.6l-2.6 7.7h-2L5 7.5h-.5v7.7H0z"/><defs><linearGradient id="paint0_linear" x1="35.2" x2="50" y1="3.9" y2="3.9" gradientUnits="userSpaceOnUse"><stop stop-color="#27B1E6"/><stop offset="1" stop-color="#148ACA"/></linearGradient></defs></svg>