<svg xmlns="http://www.w3.org/2000/svg" width="30" height="30" fill="none"><path fill="#F28A1A" d="M23.4 18.9c.5.2.7.9.7 1.2 0 .6 0 .9-.3.9-.2 0-.5-.2-.8-.7-.3-.5-.4-1-.3-1.3.3-.1.5-.2.7-.1zm-3 2.2c.4 0 .7.1 1 .4.6.5.9 1 .6 1.5-.2.2-.5.3-.8.3-.4 0-.7 0-1-.3-.5-.5-.7-1.2-.3-1.6 0-.2.3-.3.6-.3z"/><path fill="#F28A1A" d="M13.7 26.7a13.4 13.4 0 1113.4-13.3c0 2.5-.7 4.8-1.9 6.8h-.1c-.5-3.3-2.5-5.1-5.3-5.7-.3 0-.3-.2 0-.2h2.9v-1c0-4.8-4-8.7-8.8-8.7-4.8 0-8.8 4-8.8 8.8s4 8.8 8.8 8.8h.4c-.1-.8-.2-1.6-.1-2.4 0-.6.1-.7.4-.2 1.2 2.1 3 4 6.4 4.7 2.7.7 5.5 1.4 8.6 5.2.3.3-.2.7-.4.4-3.1-2.7-5.9-3.6-8.4-3.6-3.3 0-5.2.4-7 .4z"/></svg>