<?xml version="1.0" encoding="utf-8"?><svg viewBox="0 0 390 390" xmlns="http://www.w3.org/2000/svg" xmlns:xlink="http://www.w3.org/1999/xlink"><style>:root>svg{display:none}:root>svg:target{display:block}</style><svg fill="none" viewBox="0 0 14 9" id="arrow-down" xmlns="http://www.w3.org/2000/svg"><path fill="#111" fill-rule="evenodd" d="M12.3.8l1.4 1.4L7 9 .3 2.2 1.7.8 7 6 12.3.8z" clip-rule="evenodd"/></svg><svg fill="none" viewBox="0 0 14 24" id="arrow-left" xmlns="http://www.w3.org/2000/svg"><path fill="#646464" d="M.5 13.2l10.3 10.3a1.7 1.7 0 102.4-2.4L4 12l9-9.1A1.7 1.7 0 0010.9.5L.5 10.8A1.7 1.7 0 000 12c0 .4.2.9.5 1.2z"/></svg><svg fill="none" viewBox="0 0 14 24" id="arrow-right" xmlns="http://www.w3.org/2000/svg"><path fill="#646464" d="M13.2 13.2L2.9 23.5a1.7 1.7 0 11-2.4-2.4L9.6 12 .5 2.9A1.7 1.7 0 012.9.5l10.3 10.3a1.7 1.7 0 010 2.4z"/></svg><svg viewBox="-3 -3 36 42" id="bag" xmlns="http://www.w3.org/2000/svg"><path fill="#333" fill-rule="evenodd" d="M26.7 9h-3.4c0-4.6-3.7-8.3-8.3-8.3A8.3 8.3 0 006.7 9H3.3A3.3 3.3 0 000 12.3v20c0 1.9 1.5 3.4 3.3 3.4h23.4c1.8 0 3.3-1.5 3.3-3.4v-20c0-1.8-1.5-3.3-3.3-3.3zM15 4a5 5 0 015 5H10a5 5 0 015-5zm-8.3 8.3a8.3 8.3 0 0016.6 0H20a5 5 0 11-10 0H6.7z" clip-rule="evenodd"/></svg><svg viewBox="-3 -3 40 37" id="favorites" xmlns="http://www.w3.org/2000/svg"><path d="M24.5 0A10 10 0 0017 3.5 10 10 0 009.5 0 9 9 0 00.3 9.2c0 6.3 5.7 11.4 14.3 19.2l2.4 2.2 2.4-2.2c8.6-7.8 14.3-13 14.3-19.2A9 9 0 0024.5 0z"/></svg><svg viewBox="0 0 390 390" id="filters" xmlns="http://www.w3.org/2000/svg"><path d="M362 63c.2-.3 0-.6 0-.9V10c.2-5.3-4-9.8-9.4-10h-315A9.6 9.6 0 0028 9.7v52.4c0 .3-.2.6-.1.9 0 .1-.1.3 0 .4v1l.2.4v.5l.2.4c0 .2 0 .3.2.5 0 .1 0 .3.2.4 0 .1 0 .3.2.4l.2.4.2.4.3.4.2.3.3.1 119.9 141V380c-.1 3.8 2 7.3 5.5 9a9.8 9.8 0 0010.4-1.2l70.6-57.3a9.7 9.7 0 003.5-7.8V209.6l119.8-141 .2-.1.3-.3.3-.4.3-.4.2-.4.2-.4c0-.1 0-.3.2-.4 0-.2 0-.3.2-.5v-.4c.2-.2.2-.3.2-.5v-.4l.2-.5v-.5c0-.1-.1-.3 0-.4zM222.7 199.4a10.4 10.4 0 00-2.6 6.5v112L170 359V205.9c-.1-2.4-1-4.7-2.6-6.5L59.2 72h271.6L222.6 199.4zM342 52H48V20h294v32z"/></svg><svg fill="none" viewBox="0 0 18 20" id="garbage" xmlns="http://www.w3.org/2000/svg"><path fill="#333" fill-rule="evenodd" d="M6.5.8h5c1 0 1.7.8 1.7 1.7v.8h2.5c.9 0 1.6.8 1.6 1.7v1.7c0 .9-.7 1.6-1.6 1.6h-.1l-.8 9.2c0 1-.7 1.7-1.6 1.7H4.8c-.9 0-1.6-.8-1.6-1.6l-.8-9.3c-1 0-1.7-.7-1.7-1.6V5c0-1 .7-1.7 1.6-1.7h2.5v-.8c0-1 .8-1.7 1.7-1.7zM2.3 5h13.4v1.7H2.3V5zm1.8 3.3h9.8l-.7 9.1v.1H4.8l-.7-9.2zm7.4-5.8v.8h-5v-.8h5z" clip-rule="evenodd"/><path fill="#fff" d="M13.2 3.3h-.3v.3h.3v-.3zm2.4 5v-.2h-.2v.2h.2zm-.8 9.2h-.2.2zm-11.6 0h.2-.2zm-.8-9.2h.3v-.2h-.3v.2zm2.4-5v.3h.3v-.3h-.3zM2.3 5v-.3h-.2V5h.2zm13.4 0h.2v-.3h-.2V5zm0 1.7v.2h.2v-.2h-.2zm-13.4 0h-.2v.2h.2v-.2zM14 8.3h.3v-.2H14v.2zm-9.8 0v-.2h-.3v.3h.3zm9 9.1H13h.3zm0 .1v.3h.3v-.3h-.2zm-8.3 0h-.2v.2h.2v-.2zm6.7-14.2v.3h.3v-.3h-.3zm0-.8h.3v-.3h-.3v.3zm-5 .8h-.3v.3h.3v-.3zm0-.8v-.3h-.3v.3h.3zm5-2h-5v.6h5V.6zm2 2a2 2 0 00-2-2v.6c.8 0 1.4.6 1.4 1.4h.5zm0 .8v-.8H13v.8h.5zm2.2-.2h-2.5v.5h2.5V3zM17.6 5a2 2 0 00-2-2v.6c.8 0 1.5.6 1.5 1.4h.5zm0 1.7V5H17v1.7h.5zm-2 1.9a2 2 0 002-2H17c0 .8-.7 1.5-1.4 1.5v.5zm0 0V8v.5zm-.5 9l.7-9.2h-.4l-.8 9 .5.1zm-2 1.8a2 2 0 002-1.9h-.5c0 .8-.7 1.4-1.4 1.4v.5zm-8.3 0h8.4V19H4.8v.5zM3 17.6c0 1 .9 1.8 2 1.8V19c-.9 0-1.5-.6-1.5-1.3H3zm-.8-9.2l.8 9.2h.5l-.8-9.3h-.4zm.2.2h.1V8v.5zm-1.9-2c0 1.1.9 2 2 2V8A1.4 1.4 0 01.8 6.7H.4zM.4 5v1.7H1V5H.4zm2-2a2 2 0 00-2 2H1c0-.8.7-1.4 1.4-1.4V3zm2.4 0H2.3v.6h2.5V3zm-.2-.5v.8H5v-.8h-.5zm1.9-2a2 2 0 00-2 2h.6c0-.8.6-1.4 1.4-1.4V.6zM4.8 4.9H2.3v.5h2.5v-.5zm8.4 0H4.8v.5h8.4v-.5zm2.5 0h-2.5v.5h2.5v-.5zm.2 1.9V5h-.5v1.7h.5zM2.3 7h13.4v-.5H2.3V7zm-.2-2v1.7h.5V5H2zm11.8 3H4.1v.6h9.8V8zm-.5 9.5l.8-9.1h-.5l-.8 9h.5zm0 0H13h.5zm-8.6.2h8.4v-.4H4.8v.4zm-1-9.3l.8 9.1H5l-.8-9.2h-.5zm8-5v-.9h-.6v.8h.5zm-5.3.2h5V3h-5v.5zm-.3-1.1v.8h.5v-.8h-.5zm5.3-.3h-5v.5h5v-.5z"/></svg><svg fill="none" viewBox="0 0 10 13" id="location" xmlns="http://www.w3.org/2000/svg"><path fill="#3844A9" fill-rule="evenodd" d="M1 4.8A4 4 0 015 .7a4 4 0 014 4c0 3.1-4 7.6-4 7.6S1 7.8 1 4.7zm2.5 0a1.5 1.5 0 103 0 1.5 1.5 0 00-3 0z" clip-rule="evenodd"/></svg><svg fill="none" viewBox="0 0 20 21" id="pfavorites" xmlns="http://www.w3.org/2000/svg"><path fill="#3844A9" d="M13.8 3A5 5 0 0010 4.7 5 5 0 006.2 3C3.8 3 1.8 5 1.8 7.6c0 3.1 2.8 5.7 7 9.6l1.3 1 1.2-1c4.3-3.9 7.1-6.5 7.1-9.6 0-2.6-2-4.6-4.6-4.6z"/></svg><svg fill="none" viewBox="0 0 20 20" id="search" xmlns="http://www.w3.org/2000/svg"><path fill="#CCC" d="M.2 18.6l5.6-5.7a8 8 0 01-1.7-5C4 3.6 7.6 0 11.8 0c4.3 0 7.8 3.6 7.8 8s-3.5 7.8-7.8 7.8A7.6 7.6 0 017 14.1l-5.6 5.7a.8.8 0 01-1.2 0 .8.8 0 010-1.2zm11.6-4.4c3.4 0 6.2-2.8 6.2-6.3 0-3.4-2.8-6.2-6.2-6.2a6.2 6.2 0 00-6 6.2c0 3.5 2.7 6.3 6 6.3z"/></svg><svg viewBox="-3 -3 38 38" id="user" xmlns="http://www.w3.org/2000/svg"><path fill="#333" fill-rule="evenodd" d="M24 8A8 8 0 118 8a8 8 0 0116 0zM0 28c0-5.3 10.7-8 16-8s16 2.7 16 8v4H0v-4z" clip-rule="evenodd"/></svg></svg>