<svg xmlns="http://www.w3.org/2000/svg" width="32" height="30" fill="none"><path fill="#137ABE" d="M20 14.4L16.9 11l-3.7 3 3.2 3.6 3.7-3.3zM10.7 8l3.2 3.5 3.6-3.2-3.2-3.5L10.6 8zm12 12.6L19.3 17l-3.6 3.3 3.3 3.5 3.6-3.2z"/><path fill="#137ABE" d="M18.8 26.5l-6-6.6 1.8-1.4-4.3-4.7 1.7-1.4-4.2-4.6 6.6-6 2.1 2.3 3.6-3 2.1 2L23.6 2l-1-.6C20.7.6 18.4 0 16 0 7.6 0 .8 6.7.8 15a15.1 15.1 0 0022.7 13l2-1.3-3-3.4-3.7 3.2z"/><path fill="#137ABE" d="M17.2 6.2L19.6 9l2.8-2.4-2.5-2.7-2.7 2.4zm7.6 5.7l-2.4-2.7-2.7 2.5 2.5 2.6 2.6-2.4zm2.4 5.6L24.7 15 22 17.2l2.5 2.8 2.7-2.5zm.1-8.8l-1.8 1.6 1.7 1.8 1.7-1.6-1.6-1.8zm.5 6.9l1.6 1.8 1.8-1.6-1.6-1.8-1.8 1.6zM23.2 5l1.6 1.8 1.8-1.6L25 3.4 23.2 5zm1.2 17.7l2.5 2.7 2.6-2.4-2.4-2.7-2.7 2.4z"/></svg>