<svg xmlns="http://www.w3.org/2000/svg" width="28" height="25" fill="none"><path fill="#E47418" d="M27.3 10.2c-.2-.9-1-1.4-2-1.4h-1c-.6 0-.7.1-.7.6v7.2c0 1.3-1.3 2.6-2.7 2.9L7 22.5c-.5.2-1 .2-1.6.2-.2 0-.6-.1-.6-.3-.1-.2.1-.5.2-.6l.8-.4 2.6-.9c3.4-1 6.8-2.2 10.2-3.4 1.5-.5 2.4-1.5 2.4-2.8V1.7c0-.7-.3-1.3-1-1.5-1-.4-1.8-.1-2.5.2l-14.6 7C1.5 8 .7 9 .7 10.3v12.4c.5 1.4 1.8 2.2 3.5 2.2h20.4c.7 0 1.3-.1 1.9-.6.7-.6.7-1.3.7-2V10.2zM13 8.9c.3-.9 1-1.4 2.2-1.6.8 0 1.4.4 1.5 1 .2 1.1-1 2.4-2.4 2.4-1 0-1.7-.8-1.3-1.8z"/></svg>